G04 #@! TF.GenerationSoftware,KiCad,Pcbnew,5.1.5+dfsg1-2build2*
G04 #@! TF.CreationDate,2020-10-22T12:15:36+02:00*
G04 #@! TF.ProjectId,Tandberg-TD20A-U3-Arduino,54616e64-6265-4726-972d-54443230412d,rev?*
G04 #@! TF.SameCoordinates,Original*
G04 #@! TF.FileFunction,Legend,Top*
G04 #@! TF.FilePolarity,Positive*
%FSLAX46Y46*%
G04 Gerber Fmt 4.6, Leading zero omitted, Abs format (unit mm)*
G04 Created by KiCad (PCBNEW 5.1.5+dfsg1-2build2) date 2020-10-22 12:15:36*
%MOMM*%
%LPD*%
G04 APERTURE LIST*
%ADD10C,0.150000*%
%ADD11C,0.300000*%
%ADD12C,0.120000*%
G04 APERTURE END LIST*
D10*
X127095214Y-74048880D02*
X126523785Y-74048880D01*
X126809500Y-74048880D02*
X126809500Y-73048880D01*
X126714261Y-73191738D01*
X126619023Y-73286976D01*
X126523785Y-73334595D01*
D11*
X134679571Y-97760285D02*
X135893857Y-97760285D01*
X136036714Y-97831714D01*
X136108142Y-97903142D01*
X136179571Y-98046000D01*
X136179571Y-98260285D01*
X136108142Y-98403142D01*
X135608142Y-97760285D02*
X135679571Y-97903142D01*
X135679571Y-98188857D01*
X135608142Y-98331714D01*
X135536714Y-98403142D01*
X135393857Y-98474571D01*
X134965285Y-98474571D01*
X134822428Y-98403142D01*
X134751000Y-98331714D01*
X134679571Y-98188857D01*
X134679571Y-97903142D01*
X134751000Y-97760285D01*
X135679571Y-97046000D02*
X134679571Y-97046000D01*
X134179571Y-97046000D02*
X134251000Y-97117428D01*
X134322428Y-97046000D01*
X134251000Y-96974571D01*
X134179571Y-97046000D01*
X134322428Y-97046000D01*
X134679571Y-96546000D02*
X134679571Y-95974571D01*
X134179571Y-96331714D02*
X135465285Y-96331714D01*
X135608142Y-96260285D01*
X135679571Y-96117428D01*
X135679571Y-95974571D01*
X135679571Y-95474571D02*
X134179571Y-95474571D01*
X135679571Y-94831714D02*
X134893857Y-94831714D01*
X134751000Y-94903142D01*
X134679571Y-95046000D01*
X134679571Y-95260285D01*
X134751000Y-95403142D01*
X134822428Y-95474571D01*
X134679571Y-93474571D02*
X135679571Y-93474571D01*
X134679571Y-94117428D02*
X135465285Y-94117428D01*
X135608142Y-94046000D01*
X135679571Y-93903142D01*
X135679571Y-93688857D01*
X135608142Y-93546000D01*
X135536714Y-93474571D01*
X135679571Y-92760285D02*
X134179571Y-92760285D01*
X134751000Y-92760285D02*
X134679571Y-92617428D01*
X134679571Y-92331714D01*
X134751000Y-92188857D01*
X134822428Y-92117428D01*
X134965285Y-92046000D01*
X135393857Y-92046000D01*
X135536714Y-92117428D01*
X135608142Y-92188857D01*
X135679571Y-92331714D01*
X135679571Y-92617428D01*
X135608142Y-92760285D01*
X135536714Y-91403142D02*
X135608142Y-91331714D01*
X135679571Y-91403142D01*
X135608142Y-91474571D01*
X135536714Y-91403142D01*
X135679571Y-91403142D01*
X135608142Y-90046000D02*
X135679571Y-90188857D01*
X135679571Y-90474571D01*
X135608142Y-90617428D01*
X135536714Y-90688857D01*
X135393857Y-90760285D01*
X134965285Y-90760285D01*
X134822428Y-90688857D01*
X134751000Y-90617428D01*
X134679571Y-90474571D01*
X134679571Y-90188857D01*
X134751000Y-90046000D01*
X135679571Y-89188857D02*
X135608142Y-89331714D01*
X135536714Y-89403142D01*
X135393857Y-89474571D01*
X134965285Y-89474571D01*
X134822428Y-89403142D01*
X134751000Y-89331714D01*
X134679571Y-89188857D01*
X134679571Y-88974571D01*
X134751000Y-88831714D01*
X134822428Y-88760285D01*
X134965285Y-88688857D01*
X135393857Y-88688857D01*
X135536714Y-88760285D01*
X135608142Y-88831714D01*
X135679571Y-88974571D01*
X135679571Y-89188857D01*
X135679571Y-88046000D02*
X134679571Y-88046000D01*
X134822428Y-88046000D02*
X134751000Y-87974571D01*
X134679571Y-87831714D01*
X134679571Y-87617428D01*
X134751000Y-87474571D01*
X134893857Y-87403142D01*
X135679571Y-87403142D01*
X134893857Y-87403142D02*
X134751000Y-87331714D01*
X134679571Y-87188857D01*
X134679571Y-86974571D01*
X134751000Y-86831714D01*
X134893857Y-86760285D01*
X135679571Y-86760285D01*
X134108142Y-84974571D02*
X136036714Y-86260285D01*
X135679571Y-84474571D02*
X134179571Y-84474571D01*
X134751000Y-84474571D02*
X134679571Y-84331714D01*
X134679571Y-84046000D01*
X134751000Y-83903142D01*
X134822428Y-83831714D01*
X134965285Y-83760285D01*
X135393857Y-83760285D01*
X135536714Y-83831714D01*
X135608142Y-83903142D01*
X135679571Y-84046000D01*
X135679571Y-84331714D01*
X135608142Y-84474571D01*
X134679571Y-83260285D02*
X135679571Y-82974571D01*
X134965285Y-82688857D01*
X135679571Y-82403142D01*
X134679571Y-82117428D01*
X135679571Y-80903142D02*
X134893857Y-80903142D01*
X134751000Y-80974571D01*
X134679571Y-81117428D01*
X134679571Y-81403142D01*
X134751000Y-81546000D01*
X135608142Y-80903142D02*
X135679571Y-81046000D01*
X135679571Y-81403142D01*
X135608142Y-81546000D01*
X135465285Y-81617428D01*
X135322428Y-81617428D01*
X135179571Y-81546000D01*
X135108142Y-81403142D01*
X135108142Y-81046000D01*
X135036714Y-80903142D01*
X135608142Y-79546000D02*
X135679571Y-79688857D01*
X135679571Y-79974571D01*
X135608142Y-80117428D01*
X135536714Y-80188857D01*
X135393857Y-80260285D01*
X134965285Y-80260285D01*
X134822428Y-80188857D01*
X134751000Y-80117428D01*
X134679571Y-79974571D01*
X134679571Y-79688857D01*
X134751000Y-79546000D01*
X135679571Y-78903142D02*
X134179571Y-78903142D01*
X135108142Y-78760285D02*
X135679571Y-78331714D01*
X134679571Y-78331714D02*
X135251000Y-78903142D01*
D10*
X126801833Y-88797880D02*
X127373261Y-88797880D01*
X127087547Y-89797880D02*
X127087547Y-88797880D01*
X127706595Y-89797880D02*
X127706595Y-88797880D01*
X127944690Y-88797880D01*
X128087547Y-88845500D01*
X128182785Y-88940738D01*
X128230404Y-89035976D01*
X128278023Y-89226452D01*
X128278023Y-89369309D01*
X128230404Y-89559785D01*
X128182785Y-89655023D01*
X128087547Y-89750261D01*
X127944690Y-89797880D01*
X127706595Y-89797880D01*
X128658976Y-88893119D02*
X128706595Y-88845500D01*
X128801833Y-88797880D01*
X129039928Y-88797880D01*
X129135166Y-88845500D01*
X129182785Y-88893119D01*
X129230404Y-88988357D01*
X129230404Y-89083595D01*
X129182785Y-89226452D01*
X128611357Y-89797880D01*
X129230404Y-89797880D01*
X129849452Y-88797880D02*
X129944690Y-88797880D01*
X130039928Y-88845500D01*
X130087547Y-88893119D01*
X130135166Y-88988357D01*
X130182785Y-89178833D01*
X130182785Y-89416928D01*
X130135166Y-89607404D01*
X130087547Y-89702642D01*
X130039928Y-89750261D01*
X129944690Y-89797880D01*
X129849452Y-89797880D01*
X129754214Y-89750261D01*
X129706595Y-89702642D01*
X129658976Y-89607404D01*
X129611357Y-89416928D01*
X129611357Y-89178833D01*
X129658976Y-88988357D01*
X129706595Y-88893119D01*
X129754214Y-88845500D01*
X129849452Y-88797880D01*
X130563738Y-89512166D02*
X131039928Y-89512166D01*
X130468500Y-89797880D02*
X130801833Y-88797880D01*
X131135166Y-89797880D01*
X127111357Y-91447880D02*
X127111357Y-90447880D01*
X127492309Y-90447880D01*
X127587547Y-90495500D01*
X127635166Y-90543119D01*
X127682785Y-90638357D01*
X127682785Y-90781214D01*
X127635166Y-90876452D01*
X127587547Y-90924071D01*
X127492309Y-90971690D01*
X127111357Y-90971690D01*
X128682785Y-91447880D02*
X128349452Y-90971690D01*
X128111357Y-91447880D02*
X128111357Y-90447880D01*
X128492309Y-90447880D01*
X128587547Y-90495500D01*
X128635166Y-90543119D01*
X128682785Y-90638357D01*
X128682785Y-90781214D01*
X128635166Y-90876452D01*
X128587547Y-90924071D01*
X128492309Y-90971690D01*
X128111357Y-90971690D01*
X129301833Y-90447880D02*
X129492309Y-90447880D01*
X129587547Y-90495500D01*
X129682785Y-90590738D01*
X129730404Y-90781214D01*
X129730404Y-91114547D01*
X129682785Y-91305023D01*
X129587547Y-91400261D01*
X129492309Y-91447880D01*
X129301833Y-91447880D01*
X129206595Y-91400261D01*
X129111357Y-91305023D01*
X129063738Y-91114547D01*
X129063738Y-90781214D01*
X129111357Y-90590738D01*
X129206595Y-90495500D01*
X129301833Y-90447880D01*
X130158976Y-91447880D02*
X130158976Y-90447880D01*
X130492309Y-91162166D01*
X130825642Y-90447880D01*
X130825642Y-91447880D01*
X125968500Y-92812166D02*
X126444690Y-92812166D01*
X125873261Y-93097880D02*
X126206595Y-92097880D01*
X126539928Y-93097880D01*
X126873261Y-93097880D02*
X126873261Y-92097880D01*
X127111357Y-92097880D01*
X127254214Y-92145500D01*
X127349452Y-92240738D01*
X127397071Y-92335976D01*
X127444690Y-92526452D01*
X127444690Y-92669309D01*
X127397071Y-92859785D01*
X127349452Y-92955023D01*
X127254214Y-93050261D01*
X127111357Y-93097880D01*
X126873261Y-93097880D01*
X127825642Y-92812166D02*
X128301833Y-92812166D01*
X127730404Y-93097880D02*
X128063738Y-92097880D01*
X128397071Y-93097880D01*
X128730404Y-93097880D02*
X128730404Y-92097880D01*
X129111357Y-92097880D01*
X129206595Y-92145500D01*
X129254214Y-92193119D01*
X129301833Y-92288357D01*
X129301833Y-92431214D01*
X129254214Y-92526452D01*
X129206595Y-92574071D01*
X129111357Y-92621690D01*
X128730404Y-92621690D01*
X129587547Y-92097880D02*
X130158976Y-92097880D01*
X129873261Y-93097880D02*
X129873261Y-92097880D01*
X130492309Y-92574071D02*
X130825642Y-92574071D01*
X130968500Y-93097880D02*
X130492309Y-93097880D01*
X130492309Y-92097880D01*
X130968500Y-92097880D01*
X131968500Y-93097880D02*
X131635166Y-92621690D01*
X131397071Y-93097880D02*
X131397071Y-92097880D01*
X131778023Y-92097880D01*
X131873261Y-92145500D01*
X131920880Y-92193119D01*
X131968500Y-92288357D01*
X131968500Y-92431214D01*
X131920880Y-92526452D01*
X131873261Y-92574071D01*
X131778023Y-92621690D01*
X131397071Y-92621690D01*
X133018761Y-103117976D02*
X133018761Y-101867976D01*
X133614000Y-103117976D02*
X133614000Y-101867976D01*
X134090190Y-101867976D01*
X134209238Y-101927500D01*
X134268761Y-101987023D01*
X134328285Y-102106071D01*
X134328285Y-102284642D01*
X134268761Y-102403690D01*
X134209238Y-102463214D01*
X134090190Y-102522738D01*
X133614000Y-102522738D01*
X134804476Y-103058452D02*
X134983047Y-103117976D01*
X135280666Y-103117976D01*
X135399714Y-103058452D01*
X135459238Y-102998928D01*
X135518761Y-102879880D01*
X135518761Y-102760833D01*
X135459238Y-102641785D01*
X135399714Y-102582261D01*
X135280666Y-102522738D01*
X135042571Y-102463214D01*
X134923523Y-102403690D01*
X134864000Y-102344166D01*
X134804476Y-102225119D01*
X134804476Y-102106071D01*
X134864000Y-101987023D01*
X134923523Y-101927500D01*
X135042571Y-101867976D01*
X135340190Y-101867976D01*
X135518761Y-101927500D01*
D12*
X130746500Y-101473000D02*
X129921000Y-100647500D01*
X127889000Y-101409500D02*
X128460500Y-100647500D01*
D10*
X130825904Y-103117976D02*
X130111619Y-103117976D01*
X130468761Y-103117976D02*
X130468761Y-101867976D01*
X130349714Y-102046547D01*
X130230666Y-102165595D01*
X130111619Y-102225119D01*
X131956857Y-101867976D02*
X131361619Y-101867976D01*
X131302095Y-102463214D01*
X131361619Y-102403690D01*
X131480666Y-102344166D01*
X131778285Y-102344166D01*
X131897333Y-102403690D01*
X131956857Y-102463214D01*
X132016380Y-102582261D01*
X132016380Y-102879880D01*
X131956857Y-102998928D01*
X131897333Y-103058452D01*
X131778285Y-103117976D01*
X131480666Y-103117976D01*
X131361619Y-103058452D01*
X131302095Y-102998928D01*
X125436476Y-101867976D02*
X126269809Y-101867976D01*
X125734095Y-103117976D01*
X126746000Y-102998928D02*
X126805523Y-103058452D01*
X126746000Y-103117976D01*
X126686476Y-103058452D01*
X126746000Y-102998928D01*
X126746000Y-103117976D01*
X127936476Y-101867976D02*
X127341238Y-101867976D01*
X127281714Y-102463214D01*
X127341238Y-102403690D01*
X127460285Y-102344166D01*
X127757904Y-102344166D01*
X127876952Y-102403690D01*
X127936476Y-102463214D01*
X127996000Y-102582261D01*
X127996000Y-102879880D01*
X127936476Y-102998928D01*
X127876952Y-103058452D01*
X127757904Y-103117976D01*
X127460285Y-103117976D01*
X127341238Y-103058452D01*
X127281714Y-102998928D01*
D12*
X127620520Y-82206229D02*
X127862729Y-81964020D01*
X126899271Y-81484980D02*
X127141480Y-81242771D01*
X127142500Y-99331500D02*
G75*
G02X127842500Y-98631500I700000J0D01*
G01*
X127842500Y-100631500D02*
G75*
G02X127142500Y-99931500I0J700000D01*
G01*
X131242500Y-99931500D02*
G75*
G02X130542500Y-100631500I-700000J0D01*
G01*
X130542500Y-98631500D02*
G75*
G02X131242500Y-99331500I0J-700000D01*
G01*
X127792500Y-98631500D02*
X130592500Y-98631500D01*
X131242500Y-99331500D02*
X131242500Y-99931500D01*
X130592500Y-100631500D02*
X127792500Y-100631500D01*
X127142500Y-99931500D02*
X127142500Y-99331500D01*
X130863686Y-84771802D02*
X131181884Y-85090000D01*
X131181884Y-85090000D02*
X130863686Y-85408198D01*
X126946314Y-85408198D02*
X126628116Y-85090000D01*
X126628116Y-85090000D02*
X126946314Y-84771802D01*
X128586802Y-87048686D02*
X128905000Y-87366884D01*
X128905000Y-87366884D02*
X129223198Y-87048686D01*
X129223198Y-83131314D02*
X128905000Y-82813116D01*
D10*
X128725110Y-80144687D02*
X128657767Y-80144687D01*
X128523080Y-80077343D01*
X128455736Y-80010000D01*
X128388393Y-79875312D01*
X128388393Y-79740625D01*
X128422064Y-79639610D01*
X128523080Y-79471251D01*
X128624095Y-79370236D01*
X128792454Y-79269221D01*
X128893469Y-79235549D01*
X129028156Y-79235549D01*
X129162843Y-79302893D01*
X129230187Y-79370236D01*
X129297530Y-79504923D01*
X129297530Y-79572267D01*
X129331202Y-80885465D02*
X128927141Y-80481404D01*
X129129171Y-80683435D02*
X129836278Y-79976328D01*
X129667919Y-80010000D01*
X129533232Y-80010000D01*
X129432217Y-79976328D01*
X134239095Y-72350380D02*
X134239095Y-73159904D01*
X134286714Y-73255142D01*
X134334333Y-73302761D01*
X134429571Y-73350380D01*
X134620047Y-73350380D01*
X134715285Y-73302761D01*
X134762904Y-73255142D01*
X134810523Y-73159904D01*
X134810523Y-72350380D01*
X135239095Y-72445619D02*
X135286714Y-72398000D01*
X135381952Y-72350380D01*
X135620047Y-72350380D01*
X135715285Y-72398000D01*
X135762904Y-72445619D01*
X135810523Y-72540857D01*
X135810523Y-72636095D01*
X135762904Y-72778952D01*
X135191476Y-73350380D01*
X135810523Y-73350380D01*
X124928380Y-100401333D02*
X125642666Y-100401333D01*
X125785523Y-100448952D01*
X125880761Y-100544190D01*
X125928380Y-100687047D01*
X125928380Y-100782285D01*
X125928380Y-99925142D02*
X124928380Y-99925142D01*
X124928380Y-99544190D01*
X124976000Y-99448952D01*
X125023619Y-99401333D01*
X125118857Y-99353714D01*
X125261714Y-99353714D01*
X125356952Y-99401333D01*
X125404571Y-99448952D01*
X125452190Y-99544190D01*
X125452190Y-99925142D01*
X125928380Y-98401333D02*
X125928380Y-98972761D01*
X125928380Y-98687047D02*
X124928380Y-98687047D01*
X125071238Y-98782285D01*
X125166476Y-98877523D01*
X125214095Y-98972761D01*
X126878214Y-100083880D02*
X126306785Y-100083880D01*
X126592500Y-100083880D02*
X126592500Y-99083880D01*
X126497261Y-99226738D01*
X126402023Y-99321976D01*
X126306785Y-99369595D01*
X131459166Y-99083880D02*
X132078214Y-99083880D01*
X131744880Y-99464833D01*
X131887738Y-99464833D01*
X131982976Y-99512452D01*
X132030595Y-99560071D01*
X132078214Y-99655309D01*
X132078214Y-99893404D01*
X132030595Y-99988642D01*
X131982976Y-100036261D01*
X131887738Y-100083880D01*
X131602023Y-100083880D01*
X131506785Y-100036261D01*
X131459166Y-99988642D01*
X130733376Y-82184127D02*
X130160956Y-82756547D01*
X130127284Y-82857562D01*
X130127284Y-82924906D01*
X130160956Y-83025921D01*
X130295643Y-83160608D01*
X130396658Y-83194280D01*
X130464002Y-83194280D01*
X130565017Y-83160608D01*
X131137437Y-82588188D01*
X131137437Y-84002402D02*
X130733376Y-83598341D01*
X130935406Y-83800371D02*
X131642513Y-83093265D01*
X131474154Y-83126936D01*
X131339467Y-83126936D01*
X131238452Y-83093265D01*
M02*
