M48
; DRILL file {KiCad 5.1.5+dfsg1-2build2} date to. 22. okt. 2020 kl. 12.15 +0200
; FORMAT={-:-/ absolute / inch / decimal}
; #@! TF.CreationDate,2020-10-22T12:15:42+02:00
; #@! TF.GenerationSoftware,Kicad,Pcbnew,5.1.5+dfsg1-2build2
FMAT,2
INCH
T1C0.0118
T2C0.0157
T3C0.0315
%
G90
G05
T1
X5.075Y-3.35
T2
X5.025Y-2.995
X5.025Y-3.095
X5.07Y-3.115
X5.125Y-3.825
T3
X4.925Y-2.9
X4.925Y-3.0
X4.925Y-3.1
X4.925Y-3.2
X4.925Y-3.3
X4.925Y-3.4
X4.925Y-3.5
X4.925Y-3.6
X4.925Y-3.7
X4.925Y-3.8
X5.225Y-2.9
X5.225Y-3.0
X5.225Y-3.1
X5.225Y-3.2
X5.225Y-3.3
X5.225Y-3.4
X5.225Y-3.5
X5.225Y-3.6
X5.225Y-3.7
X5.225Y-3.8
T0
M30
