G04 #@! TF.GenerationSoftware,KiCad,Pcbnew,5.1.5+dfsg1-2build2*
G04 #@! TF.CreationDate,2020-10-22T12:15:37+02:00*
G04 #@! TF.ProjectId,Tandberg-TD20A-U3-Arduino,54616e64-6265-4726-972d-54443230412d,rev?*
G04 #@! TF.SameCoordinates,Original*
G04 #@! TF.FileFunction,Soldermask,Bot*
G04 #@! TF.FilePolarity,Negative*
%FSLAX46Y46*%
G04 Gerber Fmt 4.6, Leading zero omitted, Abs format (unit mm)*
G04 Created by KiCad (PCBNEW 5.1.5+dfsg1-2build2) date 2020-10-22 12:15:37*
%MOMM*%
%LPD*%
G04 APERTURE LIST*
%ADD10C,0.100000*%
G04 APERTURE END LIST*
D10*
G36*
X132963228Y-95701703D02*
G01*
X133118100Y-95765853D01*
X133257481Y-95858985D01*
X133376015Y-95977519D01*
X133469147Y-96116900D01*
X133533297Y-96271772D01*
X133566000Y-96436184D01*
X133566000Y-96603816D01*
X133533297Y-96768228D01*
X133469147Y-96923100D01*
X133376015Y-97062481D01*
X133257481Y-97181015D01*
X133118100Y-97274147D01*
X132963228Y-97338297D01*
X132798816Y-97371000D01*
X132631184Y-97371000D01*
X132466772Y-97338297D01*
X132311900Y-97274147D01*
X132172519Y-97181015D01*
X132053985Y-97062481D01*
X131960853Y-96923100D01*
X131896703Y-96768228D01*
X131864000Y-96603816D01*
X131864000Y-96436184D01*
X131896703Y-96271772D01*
X131960853Y-96116900D01*
X132053985Y-95977519D01*
X132172519Y-95858985D01*
X132311900Y-95765853D01*
X132466772Y-95701703D01*
X132631184Y-95669000D01*
X132798816Y-95669000D01*
X132963228Y-95701703D01*
G37*
G36*
X125343228Y-95701703D02*
G01*
X125498100Y-95765853D01*
X125637481Y-95858985D01*
X125756015Y-95977519D01*
X125849147Y-96116900D01*
X125913297Y-96271772D01*
X125946000Y-96436184D01*
X125946000Y-96603816D01*
X125913297Y-96768228D01*
X125849147Y-96923100D01*
X125756015Y-97062481D01*
X125637481Y-97181015D01*
X125498100Y-97274147D01*
X125343228Y-97338297D01*
X125178816Y-97371000D01*
X125011184Y-97371000D01*
X124846772Y-97338297D01*
X124691900Y-97274147D01*
X124552519Y-97181015D01*
X124433985Y-97062481D01*
X124340853Y-96923100D01*
X124276703Y-96768228D01*
X124244000Y-96603816D01*
X124244000Y-96436184D01*
X124276703Y-96271772D01*
X124340853Y-96116900D01*
X124433985Y-95977519D01*
X124552519Y-95858985D01*
X124691900Y-95765853D01*
X124846772Y-95701703D01*
X125011184Y-95669000D01*
X125178816Y-95669000D01*
X125343228Y-95701703D01*
G37*
G36*
X132963228Y-93161703D02*
G01*
X133118100Y-93225853D01*
X133257481Y-93318985D01*
X133376015Y-93437519D01*
X133469147Y-93576900D01*
X133533297Y-93731772D01*
X133566000Y-93896184D01*
X133566000Y-94063816D01*
X133533297Y-94228228D01*
X133469147Y-94383100D01*
X133376015Y-94522481D01*
X133257481Y-94641015D01*
X133118100Y-94734147D01*
X132963228Y-94798297D01*
X132798816Y-94831000D01*
X132631184Y-94831000D01*
X132466772Y-94798297D01*
X132311900Y-94734147D01*
X132172519Y-94641015D01*
X132053985Y-94522481D01*
X131960853Y-94383100D01*
X131896703Y-94228228D01*
X131864000Y-94063816D01*
X131864000Y-93896184D01*
X131896703Y-93731772D01*
X131960853Y-93576900D01*
X132053985Y-93437519D01*
X132172519Y-93318985D01*
X132311900Y-93225853D01*
X132466772Y-93161703D01*
X132631184Y-93129000D01*
X132798816Y-93129000D01*
X132963228Y-93161703D01*
G37*
G36*
X125343228Y-93161703D02*
G01*
X125498100Y-93225853D01*
X125637481Y-93318985D01*
X125756015Y-93437519D01*
X125849147Y-93576900D01*
X125913297Y-93731772D01*
X125946000Y-93896184D01*
X125946000Y-94063816D01*
X125913297Y-94228228D01*
X125849147Y-94383100D01*
X125756015Y-94522481D01*
X125637481Y-94641015D01*
X125498100Y-94734147D01*
X125343228Y-94798297D01*
X125178816Y-94831000D01*
X125011184Y-94831000D01*
X124846772Y-94798297D01*
X124691900Y-94734147D01*
X124552519Y-94641015D01*
X124433985Y-94522481D01*
X124340853Y-94383100D01*
X124276703Y-94228228D01*
X124244000Y-94063816D01*
X124244000Y-93896184D01*
X124276703Y-93731772D01*
X124340853Y-93576900D01*
X124433985Y-93437519D01*
X124552519Y-93318985D01*
X124691900Y-93225853D01*
X124846772Y-93161703D01*
X125011184Y-93129000D01*
X125178816Y-93129000D01*
X125343228Y-93161703D01*
G37*
G36*
X125343228Y-90621703D02*
G01*
X125498100Y-90685853D01*
X125637481Y-90778985D01*
X125756015Y-90897519D01*
X125849147Y-91036900D01*
X125913297Y-91191772D01*
X125946000Y-91356184D01*
X125946000Y-91523816D01*
X125913297Y-91688228D01*
X125849147Y-91843100D01*
X125756015Y-91982481D01*
X125637481Y-92101015D01*
X125498100Y-92194147D01*
X125343228Y-92258297D01*
X125178816Y-92291000D01*
X125011184Y-92291000D01*
X124846772Y-92258297D01*
X124691900Y-92194147D01*
X124552519Y-92101015D01*
X124433985Y-91982481D01*
X124340853Y-91843100D01*
X124276703Y-91688228D01*
X124244000Y-91523816D01*
X124244000Y-91356184D01*
X124276703Y-91191772D01*
X124340853Y-91036900D01*
X124433985Y-90897519D01*
X124552519Y-90778985D01*
X124691900Y-90685853D01*
X124846772Y-90621703D01*
X125011184Y-90589000D01*
X125178816Y-90589000D01*
X125343228Y-90621703D01*
G37*
G36*
X132963228Y-90621703D02*
G01*
X133118100Y-90685853D01*
X133257481Y-90778985D01*
X133376015Y-90897519D01*
X133469147Y-91036900D01*
X133533297Y-91191772D01*
X133566000Y-91356184D01*
X133566000Y-91523816D01*
X133533297Y-91688228D01*
X133469147Y-91843100D01*
X133376015Y-91982481D01*
X133257481Y-92101015D01*
X133118100Y-92194147D01*
X132963228Y-92258297D01*
X132798816Y-92291000D01*
X132631184Y-92291000D01*
X132466772Y-92258297D01*
X132311900Y-92194147D01*
X132172519Y-92101015D01*
X132053985Y-91982481D01*
X131960853Y-91843100D01*
X131896703Y-91688228D01*
X131864000Y-91523816D01*
X131864000Y-91356184D01*
X131896703Y-91191772D01*
X131960853Y-91036900D01*
X132053985Y-90897519D01*
X132172519Y-90778985D01*
X132311900Y-90685853D01*
X132466772Y-90621703D01*
X132631184Y-90589000D01*
X132798816Y-90589000D01*
X132963228Y-90621703D01*
G37*
G36*
X132963228Y-88081703D02*
G01*
X133118100Y-88145853D01*
X133257481Y-88238985D01*
X133376015Y-88357519D01*
X133469147Y-88496900D01*
X133533297Y-88651772D01*
X133566000Y-88816184D01*
X133566000Y-88983816D01*
X133533297Y-89148228D01*
X133469147Y-89303100D01*
X133376015Y-89442481D01*
X133257481Y-89561015D01*
X133118100Y-89654147D01*
X132963228Y-89718297D01*
X132798816Y-89751000D01*
X132631184Y-89751000D01*
X132466772Y-89718297D01*
X132311900Y-89654147D01*
X132172519Y-89561015D01*
X132053985Y-89442481D01*
X131960853Y-89303100D01*
X131896703Y-89148228D01*
X131864000Y-88983816D01*
X131864000Y-88816184D01*
X131896703Y-88651772D01*
X131960853Y-88496900D01*
X132053985Y-88357519D01*
X132172519Y-88238985D01*
X132311900Y-88145853D01*
X132466772Y-88081703D01*
X132631184Y-88049000D01*
X132798816Y-88049000D01*
X132963228Y-88081703D01*
G37*
G36*
X125343228Y-88081703D02*
G01*
X125498100Y-88145853D01*
X125637481Y-88238985D01*
X125756015Y-88357519D01*
X125849147Y-88496900D01*
X125913297Y-88651772D01*
X125946000Y-88816184D01*
X125946000Y-88983816D01*
X125913297Y-89148228D01*
X125849147Y-89303100D01*
X125756015Y-89442481D01*
X125637481Y-89561015D01*
X125498100Y-89654147D01*
X125343228Y-89718297D01*
X125178816Y-89751000D01*
X125011184Y-89751000D01*
X124846772Y-89718297D01*
X124691900Y-89654147D01*
X124552519Y-89561015D01*
X124433985Y-89442481D01*
X124340853Y-89303100D01*
X124276703Y-89148228D01*
X124244000Y-88983816D01*
X124244000Y-88816184D01*
X124276703Y-88651772D01*
X124340853Y-88496900D01*
X124433985Y-88357519D01*
X124552519Y-88238985D01*
X124691900Y-88145853D01*
X124846772Y-88081703D01*
X125011184Y-88049000D01*
X125178816Y-88049000D01*
X125343228Y-88081703D01*
G37*
G36*
X125343228Y-85541703D02*
G01*
X125498100Y-85605853D01*
X125637481Y-85698985D01*
X125756015Y-85817519D01*
X125849147Y-85956900D01*
X125913297Y-86111772D01*
X125946000Y-86276184D01*
X125946000Y-86443816D01*
X125913297Y-86608228D01*
X125849147Y-86763100D01*
X125756015Y-86902481D01*
X125637481Y-87021015D01*
X125498100Y-87114147D01*
X125343228Y-87178297D01*
X125178816Y-87211000D01*
X125011184Y-87211000D01*
X124846772Y-87178297D01*
X124691900Y-87114147D01*
X124552519Y-87021015D01*
X124433985Y-86902481D01*
X124340853Y-86763100D01*
X124276703Y-86608228D01*
X124244000Y-86443816D01*
X124244000Y-86276184D01*
X124276703Y-86111772D01*
X124340853Y-85956900D01*
X124433985Y-85817519D01*
X124552519Y-85698985D01*
X124691900Y-85605853D01*
X124846772Y-85541703D01*
X125011184Y-85509000D01*
X125178816Y-85509000D01*
X125343228Y-85541703D01*
G37*
G36*
X132963228Y-85541703D02*
G01*
X133118100Y-85605853D01*
X133257481Y-85698985D01*
X133376015Y-85817519D01*
X133469147Y-85956900D01*
X133533297Y-86111772D01*
X133566000Y-86276184D01*
X133566000Y-86443816D01*
X133533297Y-86608228D01*
X133469147Y-86763100D01*
X133376015Y-86902481D01*
X133257481Y-87021015D01*
X133118100Y-87114147D01*
X132963228Y-87178297D01*
X132798816Y-87211000D01*
X132631184Y-87211000D01*
X132466772Y-87178297D01*
X132311900Y-87114147D01*
X132172519Y-87021015D01*
X132053985Y-86902481D01*
X131960853Y-86763100D01*
X131896703Y-86608228D01*
X131864000Y-86443816D01*
X131864000Y-86276184D01*
X131896703Y-86111772D01*
X131960853Y-85956900D01*
X132053985Y-85817519D01*
X132172519Y-85698985D01*
X132311900Y-85605853D01*
X132466772Y-85541703D01*
X132631184Y-85509000D01*
X132798816Y-85509000D01*
X132963228Y-85541703D01*
G37*
G36*
X125343228Y-83001703D02*
G01*
X125498100Y-83065853D01*
X125637481Y-83158985D01*
X125756015Y-83277519D01*
X125849147Y-83416900D01*
X125913297Y-83571772D01*
X125946000Y-83736184D01*
X125946000Y-83903816D01*
X125913297Y-84068228D01*
X125849147Y-84223100D01*
X125756015Y-84362481D01*
X125637481Y-84481015D01*
X125498100Y-84574147D01*
X125343228Y-84638297D01*
X125178816Y-84671000D01*
X125011184Y-84671000D01*
X124846772Y-84638297D01*
X124691900Y-84574147D01*
X124552519Y-84481015D01*
X124433985Y-84362481D01*
X124340853Y-84223100D01*
X124276703Y-84068228D01*
X124244000Y-83903816D01*
X124244000Y-83736184D01*
X124276703Y-83571772D01*
X124340853Y-83416900D01*
X124433985Y-83277519D01*
X124552519Y-83158985D01*
X124691900Y-83065853D01*
X124846772Y-83001703D01*
X125011184Y-82969000D01*
X125178816Y-82969000D01*
X125343228Y-83001703D01*
G37*
G36*
X132963228Y-83001703D02*
G01*
X133118100Y-83065853D01*
X133257481Y-83158985D01*
X133376015Y-83277519D01*
X133469147Y-83416900D01*
X133533297Y-83571772D01*
X133566000Y-83736184D01*
X133566000Y-83903816D01*
X133533297Y-84068228D01*
X133469147Y-84223100D01*
X133376015Y-84362481D01*
X133257481Y-84481015D01*
X133118100Y-84574147D01*
X132963228Y-84638297D01*
X132798816Y-84671000D01*
X132631184Y-84671000D01*
X132466772Y-84638297D01*
X132311900Y-84574147D01*
X132172519Y-84481015D01*
X132053985Y-84362481D01*
X131960853Y-84223100D01*
X131896703Y-84068228D01*
X131864000Y-83903816D01*
X131864000Y-83736184D01*
X131896703Y-83571772D01*
X131960853Y-83416900D01*
X132053985Y-83277519D01*
X132172519Y-83158985D01*
X132311900Y-83065853D01*
X132466772Y-83001703D01*
X132631184Y-82969000D01*
X132798816Y-82969000D01*
X132963228Y-83001703D01*
G37*
G36*
X132963228Y-80461703D02*
G01*
X133118100Y-80525853D01*
X133257481Y-80618985D01*
X133376015Y-80737519D01*
X133469147Y-80876900D01*
X133533297Y-81031772D01*
X133566000Y-81196184D01*
X133566000Y-81363816D01*
X133533297Y-81528228D01*
X133469147Y-81683100D01*
X133376015Y-81822481D01*
X133257481Y-81941015D01*
X133118100Y-82034147D01*
X132963228Y-82098297D01*
X132798816Y-82131000D01*
X132631184Y-82131000D01*
X132466772Y-82098297D01*
X132311900Y-82034147D01*
X132172519Y-81941015D01*
X132053985Y-81822481D01*
X131960853Y-81683100D01*
X131896703Y-81528228D01*
X131864000Y-81363816D01*
X131864000Y-81196184D01*
X131896703Y-81031772D01*
X131960853Y-80876900D01*
X132053985Y-80737519D01*
X132172519Y-80618985D01*
X132311900Y-80525853D01*
X132466772Y-80461703D01*
X132631184Y-80429000D01*
X132798816Y-80429000D01*
X132963228Y-80461703D01*
G37*
G36*
X125343228Y-80461703D02*
G01*
X125498100Y-80525853D01*
X125637481Y-80618985D01*
X125756015Y-80737519D01*
X125849147Y-80876900D01*
X125913297Y-81031772D01*
X125946000Y-81196184D01*
X125946000Y-81363816D01*
X125913297Y-81528228D01*
X125849147Y-81683100D01*
X125756015Y-81822481D01*
X125637481Y-81941015D01*
X125498100Y-82034147D01*
X125343228Y-82098297D01*
X125178816Y-82131000D01*
X125011184Y-82131000D01*
X124846772Y-82098297D01*
X124691900Y-82034147D01*
X124552519Y-81941015D01*
X124433985Y-81822481D01*
X124340853Y-81683100D01*
X124276703Y-81528228D01*
X124244000Y-81363816D01*
X124244000Y-81196184D01*
X124276703Y-81031772D01*
X124340853Y-80876900D01*
X124433985Y-80737519D01*
X124552519Y-80618985D01*
X124691900Y-80525853D01*
X124846772Y-80461703D01*
X125011184Y-80429000D01*
X125178816Y-80429000D01*
X125343228Y-80461703D01*
G37*
G36*
X132963228Y-77921703D02*
G01*
X133118100Y-77985853D01*
X133257481Y-78078985D01*
X133376015Y-78197519D01*
X133469147Y-78336900D01*
X133533297Y-78491772D01*
X133566000Y-78656184D01*
X133566000Y-78823816D01*
X133533297Y-78988228D01*
X133469147Y-79143100D01*
X133376015Y-79282481D01*
X133257481Y-79401015D01*
X133118100Y-79494147D01*
X132963228Y-79558297D01*
X132798816Y-79591000D01*
X132631184Y-79591000D01*
X132466772Y-79558297D01*
X132311900Y-79494147D01*
X132172519Y-79401015D01*
X132053985Y-79282481D01*
X131960853Y-79143100D01*
X131896703Y-78988228D01*
X131864000Y-78823816D01*
X131864000Y-78656184D01*
X131896703Y-78491772D01*
X131960853Y-78336900D01*
X132053985Y-78197519D01*
X132172519Y-78078985D01*
X132311900Y-77985853D01*
X132466772Y-77921703D01*
X132631184Y-77889000D01*
X132798816Y-77889000D01*
X132963228Y-77921703D01*
G37*
G36*
X125343228Y-77921703D02*
G01*
X125498100Y-77985853D01*
X125637481Y-78078985D01*
X125756015Y-78197519D01*
X125849147Y-78336900D01*
X125913297Y-78491772D01*
X125946000Y-78656184D01*
X125946000Y-78823816D01*
X125913297Y-78988228D01*
X125849147Y-79143100D01*
X125756015Y-79282481D01*
X125637481Y-79401015D01*
X125498100Y-79494147D01*
X125343228Y-79558297D01*
X125178816Y-79591000D01*
X125011184Y-79591000D01*
X124846772Y-79558297D01*
X124691900Y-79494147D01*
X124552519Y-79401015D01*
X124433985Y-79282481D01*
X124340853Y-79143100D01*
X124276703Y-78988228D01*
X124244000Y-78823816D01*
X124244000Y-78656184D01*
X124276703Y-78491772D01*
X124340853Y-78336900D01*
X124433985Y-78197519D01*
X124552519Y-78078985D01*
X124691900Y-77985853D01*
X124846772Y-77921703D01*
X125011184Y-77889000D01*
X125178816Y-77889000D01*
X125343228Y-77921703D01*
G37*
G36*
X132963228Y-75381703D02*
G01*
X133118100Y-75445853D01*
X133257481Y-75538985D01*
X133376015Y-75657519D01*
X133469147Y-75796900D01*
X133533297Y-75951772D01*
X133566000Y-76116184D01*
X133566000Y-76283816D01*
X133533297Y-76448228D01*
X133469147Y-76603100D01*
X133376015Y-76742481D01*
X133257481Y-76861015D01*
X133118100Y-76954147D01*
X132963228Y-77018297D01*
X132798816Y-77051000D01*
X132631184Y-77051000D01*
X132466772Y-77018297D01*
X132311900Y-76954147D01*
X132172519Y-76861015D01*
X132053985Y-76742481D01*
X131960853Y-76603100D01*
X131896703Y-76448228D01*
X131864000Y-76283816D01*
X131864000Y-76116184D01*
X131896703Y-75951772D01*
X131960853Y-75796900D01*
X132053985Y-75657519D01*
X132172519Y-75538985D01*
X132311900Y-75445853D01*
X132466772Y-75381703D01*
X132631184Y-75349000D01*
X132798816Y-75349000D01*
X132963228Y-75381703D01*
G37*
G36*
X125343228Y-75381703D02*
G01*
X125498100Y-75445853D01*
X125637481Y-75538985D01*
X125756015Y-75657519D01*
X125849147Y-75796900D01*
X125913297Y-75951772D01*
X125946000Y-76116184D01*
X125946000Y-76283816D01*
X125913297Y-76448228D01*
X125849147Y-76603100D01*
X125756015Y-76742481D01*
X125637481Y-76861015D01*
X125498100Y-76954147D01*
X125343228Y-77018297D01*
X125178816Y-77051000D01*
X125011184Y-77051000D01*
X124846772Y-77018297D01*
X124691900Y-76954147D01*
X124552519Y-76861015D01*
X124433985Y-76742481D01*
X124340853Y-76603100D01*
X124276703Y-76448228D01*
X124244000Y-76283816D01*
X124244000Y-76116184D01*
X124276703Y-75951772D01*
X124340853Y-75796900D01*
X124433985Y-75657519D01*
X124552519Y-75538985D01*
X124691900Y-75445853D01*
X124846772Y-75381703D01*
X125011184Y-75349000D01*
X125178816Y-75349000D01*
X125343228Y-75381703D01*
G37*
G36*
X125946000Y-74511000D02*
G01*
X124244000Y-74511000D01*
X124244000Y-72809000D01*
X125946000Y-72809000D01*
X125946000Y-74511000D01*
G37*
G36*
X132963228Y-72841703D02*
G01*
X133118100Y-72905853D01*
X133257481Y-72998985D01*
X133376015Y-73117519D01*
X133469147Y-73256900D01*
X133533297Y-73411772D01*
X133566000Y-73576184D01*
X133566000Y-73743816D01*
X133533297Y-73908228D01*
X133469147Y-74063100D01*
X133376015Y-74202481D01*
X133257481Y-74321015D01*
X133118100Y-74414147D01*
X132963228Y-74478297D01*
X132798816Y-74511000D01*
X132631184Y-74511000D01*
X132466772Y-74478297D01*
X132311900Y-74414147D01*
X132172519Y-74321015D01*
X132053985Y-74202481D01*
X131960853Y-74063100D01*
X131896703Y-73908228D01*
X131864000Y-73743816D01*
X131864000Y-73576184D01*
X131896703Y-73411772D01*
X131960853Y-73256900D01*
X132053985Y-73117519D01*
X132172519Y-72998985D01*
X132311900Y-72905853D01*
X132466772Y-72841703D01*
X132631184Y-72809000D01*
X132798816Y-72809000D01*
X132963228Y-72841703D01*
G37*
M02*
