G04 #@! TF.GenerationSoftware,KiCad,Pcbnew,5.1.5+dfsg1-2build2*
G04 #@! TF.CreationDate,2020-10-22T12:15:36+02:00*
G04 #@! TF.ProjectId,Tandberg-TD20A-U3-Arduino,54616e64-6265-4726-972d-54443230412d,rev?*
G04 #@! TF.SameCoordinates,Original*
G04 #@! TF.FileFunction,Copper,L1,Top*
G04 #@! TF.FilePolarity,Positive*
%FSLAX46Y46*%
G04 Gerber Fmt 4.6, Leading zero omitted, Abs format (unit mm)*
G04 Created by KiCad (PCBNEW 5.1.5+dfsg1-2build2) date 2020-10-22 12:15:36*
%MOMM*%
%LPD*%
G04 APERTURE LIST*
%ADD10C,0.100000*%
%ADD11O,1.600000X1.600000*%
%ADD12R,1.600000X1.600000*%
%ADD13R,1.000000X1.500000*%
%ADD14C,0.800000*%
%ADD15C,0.600000*%
%ADD16C,0.152400*%
%ADD17C,0.250000*%
%ADD18C,0.558800*%
G04 APERTURE END LIST*
G04 #@! TA.AperFunction,SMDPad,CuDef*
D10*
G36*
X128058352Y-80498195D02*
G01*
X128081407Y-80501614D01*
X128104016Y-80507278D01*
X128125960Y-80515130D01*
X128147030Y-80525095D01*
X128167021Y-80537077D01*
X128185741Y-80550961D01*
X128203011Y-80566613D01*
X128538887Y-80902489D01*
X128554539Y-80919759D01*
X128568423Y-80938479D01*
X128580405Y-80958470D01*
X128590370Y-80979540D01*
X128598222Y-81001484D01*
X128603886Y-81024093D01*
X128607305Y-81047148D01*
X128608449Y-81070427D01*
X128607305Y-81093706D01*
X128603886Y-81116761D01*
X128598222Y-81139370D01*
X128590370Y-81161314D01*
X128580405Y-81182384D01*
X128568423Y-81202375D01*
X128554539Y-81221095D01*
X128538887Y-81238365D01*
X128132301Y-81644951D01*
X128115031Y-81660603D01*
X128096311Y-81674487D01*
X128076320Y-81686469D01*
X128055250Y-81696434D01*
X128033306Y-81704286D01*
X128010697Y-81709950D01*
X127987642Y-81713369D01*
X127964363Y-81714513D01*
X127941084Y-81713369D01*
X127918029Y-81709950D01*
X127895420Y-81704286D01*
X127873476Y-81696434D01*
X127852406Y-81686469D01*
X127832415Y-81674487D01*
X127813695Y-81660603D01*
X127796425Y-81644951D01*
X127460549Y-81309075D01*
X127444897Y-81291805D01*
X127431013Y-81273085D01*
X127419031Y-81253094D01*
X127409066Y-81232024D01*
X127401214Y-81210080D01*
X127395550Y-81187471D01*
X127392131Y-81164416D01*
X127390987Y-81141137D01*
X127392131Y-81117858D01*
X127395550Y-81094803D01*
X127401214Y-81072194D01*
X127409066Y-81050250D01*
X127419031Y-81029180D01*
X127431013Y-81009189D01*
X127444897Y-80990469D01*
X127460549Y-80973199D01*
X127867135Y-80566613D01*
X127884405Y-80550961D01*
X127903125Y-80537077D01*
X127923116Y-80525095D01*
X127944186Y-80515130D01*
X127966130Y-80507278D01*
X127988739Y-80501614D01*
X128011794Y-80498195D01*
X128035073Y-80497051D01*
X128058352Y-80498195D01*
G37*
G04 #@! TD.AperFunction*
G04 #@! TA.AperFunction,SMDPad,CuDef*
G36*
X126820916Y-81735631D02*
G01*
X126843971Y-81739050D01*
X126866580Y-81744714D01*
X126888524Y-81752566D01*
X126909594Y-81762531D01*
X126929585Y-81774513D01*
X126948305Y-81788397D01*
X126965575Y-81804049D01*
X127301451Y-82139925D01*
X127317103Y-82157195D01*
X127330987Y-82175915D01*
X127342969Y-82195906D01*
X127352934Y-82216976D01*
X127360786Y-82238920D01*
X127366450Y-82261529D01*
X127369869Y-82284584D01*
X127371013Y-82307863D01*
X127369869Y-82331142D01*
X127366450Y-82354197D01*
X127360786Y-82376806D01*
X127352934Y-82398750D01*
X127342969Y-82419820D01*
X127330987Y-82439811D01*
X127317103Y-82458531D01*
X127301451Y-82475801D01*
X126894865Y-82882387D01*
X126877595Y-82898039D01*
X126858875Y-82911923D01*
X126838884Y-82923905D01*
X126817814Y-82933870D01*
X126795870Y-82941722D01*
X126773261Y-82947386D01*
X126750206Y-82950805D01*
X126726927Y-82951949D01*
X126703648Y-82950805D01*
X126680593Y-82947386D01*
X126657984Y-82941722D01*
X126636040Y-82933870D01*
X126614970Y-82923905D01*
X126594979Y-82911923D01*
X126576259Y-82898039D01*
X126558989Y-82882387D01*
X126223113Y-82546511D01*
X126207461Y-82529241D01*
X126193577Y-82510521D01*
X126181595Y-82490530D01*
X126171630Y-82469460D01*
X126163778Y-82447516D01*
X126158114Y-82424907D01*
X126154695Y-82401852D01*
X126153551Y-82378573D01*
X126154695Y-82355294D01*
X126158114Y-82332239D01*
X126163778Y-82309630D01*
X126171630Y-82287686D01*
X126181595Y-82266616D01*
X126193577Y-82246625D01*
X126207461Y-82227905D01*
X126223113Y-82210635D01*
X126629699Y-81804049D01*
X126646969Y-81788397D01*
X126665689Y-81774513D01*
X126685680Y-81762531D01*
X126706750Y-81752566D01*
X126728694Y-81744714D01*
X126751303Y-81739050D01*
X126774358Y-81735631D01*
X126797637Y-81734487D01*
X126820916Y-81735631D01*
G37*
G04 #@! TD.AperFunction*
D11*
X132715000Y-73660000D03*
X125095000Y-96520000D03*
X132715000Y-76200000D03*
X125095000Y-93980000D03*
X132715000Y-78740000D03*
X125095000Y-91440000D03*
X132715000Y-81280000D03*
X125095000Y-88900000D03*
X132715000Y-83820000D03*
X125095000Y-86360000D03*
X132715000Y-86360000D03*
X125095000Y-83820000D03*
X132715000Y-88900000D03*
X125095000Y-81280000D03*
X132715000Y-91440000D03*
X125095000Y-78740000D03*
X132715000Y-93980000D03*
X125095000Y-76200000D03*
X132715000Y-96520000D03*
D12*
X125095000Y-73660000D03*
D13*
X129192500Y-99631500D03*
G04 #@! TA.AperFunction,SMDPad,CuDef*
D10*
G36*
X130492500Y-98882102D02*
G01*
X130517034Y-98882102D01*
X130565865Y-98886912D01*
X130613990Y-98896484D01*
X130660945Y-98910728D01*
X130706278Y-98929505D01*
X130749551Y-98952636D01*
X130790350Y-98979896D01*
X130828279Y-99011024D01*
X130862976Y-99045721D01*
X130894104Y-99083650D01*
X130921364Y-99124449D01*
X130944495Y-99167722D01*
X130963272Y-99213055D01*
X130977516Y-99260010D01*
X130987088Y-99308135D01*
X130991898Y-99356966D01*
X130991898Y-99381500D01*
X130992500Y-99381500D01*
X130992500Y-99881500D01*
X130991898Y-99881500D01*
X130991898Y-99906034D01*
X130987088Y-99954865D01*
X130977516Y-100002990D01*
X130963272Y-100049945D01*
X130944495Y-100095278D01*
X130921364Y-100138551D01*
X130894104Y-100179350D01*
X130862976Y-100217279D01*
X130828279Y-100251976D01*
X130790350Y-100283104D01*
X130749551Y-100310364D01*
X130706278Y-100333495D01*
X130660945Y-100352272D01*
X130613990Y-100366516D01*
X130565865Y-100376088D01*
X130517034Y-100380898D01*
X130492500Y-100380898D01*
X130492500Y-100381500D01*
X129942500Y-100381500D01*
X129942500Y-98881500D01*
X130492500Y-98881500D01*
X130492500Y-98882102D01*
G37*
G04 #@! TD.AperFunction*
G04 #@! TA.AperFunction,SMDPad,CuDef*
G36*
X128442500Y-100381500D02*
G01*
X127892500Y-100381500D01*
X127892500Y-100380898D01*
X127867966Y-100380898D01*
X127819135Y-100376088D01*
X127771010Y-100366516D01*
X127724055Y-100352272D01*
X127678722Y-100333495D01*
X127635449Y-100310364D01*
X127594650Y-100283104D01*
X127556721Y-100251976D01*
X127522024Y-100217279D01*
X127490896Y-100179350D01*
X127463636Y-100138551D01*
X127440505Y-100095278D01*
X127421728Y-100049945D01*
X127407484Y-100002990D01*
X127397912Y-99954865D01*
X127393102Y-99906034D01*
X127393102Y-99881500D01*
X127392500Y-99881500D01*
X127392500Y-99381500D01*
X127393102Y-99381500D01*
X127393102Y-99356966D01*
X127397912Y-99308135D01*
X127407484Y-99260010D01*
X127421728Y-99213055D01*
X127440505Y-99167722D01*
X127463636Y-99124449D01*
X127490896Y-99083650D01*
X127522024Y-99045721D01*
X127556721Y-99011024D01*
X127594650Y-98979896D01*
X127635449Y-98952636D01*
X127678722Y-98929505D01*
X127724055Y-98910728D01*
X127771010Y-98896484D01*
X127819135Y-98886912D01*
X127867966Y-98882102D01*
X127892500Y-98882102D01*
X127892500Y-98881500D01*
X128442500Y-98881500D01*
X128442500Y-100381500D01*
G37*
G04 #@! TD.AperFunction*
G04 #@! TA.AperFunction,SMDPad,CuDef*
G36*
X128929504Y-83992676D02*
G01*
X128953773Y-83996276D01*
X128977571Y-84002237D01*
X129000671Y-84010502D01*
X129022849Y-84020992D01*
X129043893Y-84033605D01*
X129063598Y-84048219D01*
X129081777Y-84064695D01*
X129930305Y-84913223D01*
X129946781Y-84931402D01*
X129961395Y-84951107D01*
X129974008Y-84972151D01*
X129984498Y-84994329D01*
X129992763Y-85017429D01*
X129998724Y-85041227D01*
X130002324Y-85065496D01*
X130003528Y-85090000D01*
X130002324Y-85114504D01*
X129998724Y-85138773D01*
X129992763Y-85162571D01*
X129984498Y-85185671D01*
X129974008Y-85207849D01*
X129961395Y-85228893D01*
X129946781Y-85248598D01*
X129930305Y-85266777D01*
X129081777Y-86115305D01*
X129063598Y-86131781D01*
X129043893Y-86146395D01*
X129022849Y-86159008D01*
X129000671Y-86169498D01*
X128977571Y-86177763D01*
X128953773Y-86183724D01*
X128929504Y-86187324D01*
X128905000Y-86188528D01*
X128880496Y-86187324D01*
X128856227Y-86183724D01*
X128832429Y-86177763D01*
X128809329Y-86169498D01*
X128787151Y-86159008D01*
X128766107Y-86146395D01*
X128746402Y-86131781D01*
X128728223Y-86115305D01*
X127879695Y-85266777D01*
X127863219Y-85248598D01*
X127848605Y-85228893D01*
X127835992Y-85207849D01*
X127825502Y-85185671D01*
X127817237Y-85162571D01*
X127811276Y-85138773D01*
X127807676Y-85114504D01*
X127806472Y-85090000D01*
X127807676Y-85065496D01*
X127811276Y-85041227D01*
X127817237Y-85017429D01*
X127825502Y-84994329D01*
X127835992Y-84972151D01*
X127848605Y-84951107D01*
X127863219Y-84931402D01*
X127879695Y-84913223D01*
X128728223Y-84064695D01*
X128746402Y-84048219D01*
X128766107Y-84033605D01*
X128787151Y-84020992D01*
X128809329Y-84010502D01*
X128832429Y-84002237D01*
X128856227Y-83996276D01*
X128880496Y-83992676D01*
X128905000Y-83991472D01*
X128929504Y-83992676D01*
G37*
G04 #@! TD.AperFunction*
G04 #@! TA.AperFunction,SMDPad,CuDef*
G36*
X128733939Y-83647506D02*
G01*
X128738559Y-83656150D01*
X128741405Y-83665530D01*
X128742365Y-83675284D01*
X128742365Y-83747000D01*
X128741405Y-83756754D01*
X128738559Y-83766134D01*
X128733939Y-83774778D01*
X128727721Y-83782355D01*
X128692868Y-83817208D01*
X128685291Y-83823426D01*
X128676647Y-83828047D01*
X128667267Y-83830892D01*
X128657513Y-83831852D01*
X128647759Y-83830892D01*
X128638379Y-83828047D01*
X128629735Y-83823426D01*
X128622158Y-83817208D01*
X128127183Y-83322233D01*
X128120965Y-83314656D01*
X128116344Y-83306012D01*
X128113499Y-83296632D01*
X128112539Y-83286878D01*
X128113499Y-83277124D01*
X128116344Y-83267744D01*
X128120965Y-83259100D01*
X128127183Y-83251523D01*
X128197894Y-83180812D01*
X128205471Y-83174594D01*
X128214115Y-83169973D01*
X128223495Y-83167128D01*
X128233249Y-83166168D01*
X128243003Y-83167128D01*
X128252383Y-83169973D01*
X128261027Y-83174594D01*
X128268604Y-83180812D01*
X128727721Y-83639929D01*
X128733939Y-83647506D01*
G37*
G04 #@! TD.AperFunction*
G04 #@! TA.AperFunction,SMDPad,CuDef*
G36*
X127955307Y-83449250D02*
G01*
X127960161Y-83449970D01*
X127964920Y-83451162D01*
X127969540Y-83452815D01*
X127973976Y-83454913D01*
X127978185Y-83457436D01*
X127982126Y-83460358D01*
X127985761Y-83463654D01*
X128480736Y-83958629D01*
X128484032Y-83962264D01*
X128486954Y-83966205D01*
X128489477Y-83970414D01*
X128491575Y-83974850D01*
X128493228Y-83979470D01*
X128494420Y-83984229D01*
X128495140Y-83989083D01*
X128495381Y-83993984D01*
X128495140Y-83998885D01*
X128494420Y-84003739D01*
X128493228Y-84008498D01*
X128491575Y-84013118D01*
X128489477Y-84017554D01*
X128486954Y-84021763D01*
X128484032Y-84025704D01*
X128480736Y-84029339D01*
X128410025Y-84100050D01*
X128406390Y-84103346D01*
X128402449Y-84106268D01*
X128398240Y-84108791D01*
X128393804Y-84110889D01*
X128389184Y-84112542D01*
X128384425Y-84113734D01*
X128379571Y-84114454D01*
X128374670Y-84114695D01*
X128369769Y-84114454D01*
X128364915Y-84113734D01*
X128360156Y-84112542D01*
X128355536Y-84110889D01*
X128351100Y-84108791D01*
X128346891Y-84106268D01*
X128342950Y-84103346D01*
X128339315Y-84100050D01*
X127844340Y-83605075D01*
X127841044Y-83601440D01*
X127838122Y-83597499D01*
X127835599Y-83593290D01*
X127833501Y-83588854D01*
X127831848Y-83584234D01*
X127830656Y-83579475D01*
X127829936Y-83574621D01*
X127829695Y-83569720D01*
X127829936Y-83564819D01*
X127830656Y-83559965D01*
X127831848Y-83555206D01*
X127833501Y-83550586D01*
X127835599Y-83546150D01*
X127838122Y-83541941D01*
X127841044Y-83538000D01*
X127844340Y-83534365D01*
X127915051Y-83463654D01*
X127918686Y-83460358D01*
X127922627Y-83457436D01*
X127926836Y-83454913D01*
X127931272Y-83452815D01*
X127935892Y-83451162D01*
X127940651Y-83449970D01*
X127945505Y-83449250D01*
X127950406Y-83449009D01*
X127955307Y-83449250D01*
G37*
G04 #@! TD.AperFunction*
G04 #@! TA.AperFunction,SMDPad,CuDef*
G36*
X127672464Y-83732093D02*
G01*
X127677318Y-83732813D01*
X127682077Y-83734005D01*
X127686697Y-83735658D01*
X127691133Y-83737756D01*
X127695342Y-83740279D01*
X127699283Y-83743201D01*
X127702918Y-83746497D01*
X128197893Y-84241472D01*
X128201189Y-84245107D01*
X128204111Y-84249048D01*
X128206634Y-84253257D01*
X128208732Y-84257693D01*
X128210385Y-84262313D01*
X128211577Y-84267072D01*
X128212297Y-84271926D01*
X128212538Y-84276827D01*
X128212297Y-84281728D01*
X128211577Y-84286582D01*
X128210385Y-84291341D01*
X128208732Y-84295961D01*
X128206634Y-84300397D01*
X128204111Y-84304606D01*
X128201189Y-84308547D01*
X128197893Y-84312182D01*
X128127182Y-84382893D01*
X128123547Y-84386189D01*
X128119606Y-84389111D01*
X128115397Y-84391634D01*
X128110961Y-84393732D01*
X128106341Y-84395385D01*
X128101582Y-84396577D01*
X128096728Y-84397297D01*
X128091827Y-84397538D01*
X128086926Y-84397297D01*
X128082072Y-84396577D01*
X128077313Y-84395385D01*
X128072693Y-84393732D01*
X128068257Y-84391634D01*
X128064048Y-84389111D01*
X128060107Y-84386189D01*
X128056472Y-84382893D01*
X127561497Y-83887918D01*
X127558201Y-83884283D01*
X127555279Y-83880342D01*
X127552756Y-83876133D01*
X127550658Y-83871697D01*
X127549005Y-83867077D01*
X127547813Y-83862318D01*
X127547093Y-83857464D01*
X127546852Y-83852563D01*
X127547093Y-83847662D01*
X127547813Y-83842808D01*
X127549005Y-83838049D01*
X127550658Y-83833429D01*
X127552756Y-83828993D01*
X127555279Y-83824784D01*
X127558201Y-83820843D01*
X127561497Y-83817208D01*
X127632208Y-83746497D01*
X127635843Y-83743201D01*
X127639784Y-83740279D01*
X127643993Y-83737756D01*
X127648429Y-83735658D01*
X127653049Y-83734005D01*
X127657808Y-83732813D01*
X127662662Y-83732093D01*
X127667563Y-83731852D01*
X127672464Y-83732093D01*
G37*
G04 #@! TD.AperFunction*
G04 #@! TA.AperFunction,SMDPad,CuDef*
G36*
X127389621Y-84014936D02*
G01*
X127394475Y-84015656D01*
X127399234Y-84016848D01*
X127403854Y-84018501D01*
X127408290Y-84020599D01*
X127412499Y-84023122D01*
X127416440Y-84026044D01*
X127420075Y-84029340D01*
X127915050Y-84524315D01*
X127918346Y-84527950D01*
X127921268Y-84531891D01*
X127923791Y-84536100D01*
X127925889Y-84540536D01*
X127927542Y-84545156D01*
X127928734Y-84549915D01*
X127929454Y-84554769D01*
X127929695Y-84559670D01*
X127929454Y-84564571D01*
X127928734Y-84569425D01*
X127927542Y-84574184D01*
X127925889Y-84578804D01*
X127923791Y-84583240D01*
X127921268Y-84587449D01*
X127918346Y-84591390D01*
X127915050Y-84595025D01*
X127844339Y-84665736D01*
X127840704Y-84669032D01*
X127836763Y-84671954D01*
X127832554Y-84674477D01*
X127828118Y-84676575D01*
X127823498Y-84678228D01*
X127818739Y-84679420D01*
X127813885Y-84680140D01*
X127808984Y-84680381D01*
X127804083Y-84680140D01*
X127799229Y-84679420D01*
X127794470Y-84678228D01*
X127789850Y-84676575D01*
X127785414Y-84674477D01*
X127781205Y-84671954D01*
X127777264Y-84669032D01*
X127773629Y-84665736D01*
X127278654Y-84170761D01*
X127275358Y-84167126D01*
X127272436Y-84163185D01*
X127269913Y-84158976D01*
X127267815Y-84154540D01*
X127266162Y-84149920D01*
X127264970Y-84145161D01*
X127264250Y-84140307D01*
X127264009Y-84135406D01*
X127264250Y-84130505D01*
X127264970Y-84125651D01*
X127266162Y-84120892D01*
X127267815Y-84116272D01*
X127269913Y-84111836D01*
X127272436Y-84107627D01*
X127275358Y-84103686D01*
X127278654Y-84100051D01*
X127349365Y-84029340D01*
X127353000Y-84026044D01*
X127356941Y-84023122D01*
X127361150Y-84020599D01*
X127365586Y-84018501D01*
X127370206Y-84016848D01*
X127374965Y-84015656D01*
X127379819Y-84014936D01*
X127384720Y-84014695D01*
X127389621Y-84014936D01*
G37*
G04 #@! TD.AperFunction*
G04 #@! TA.AperFunction,SMDPad,CuDef*
G36*
X127638426Y-84814735D02*
G01*
X127643047Y-84823379D01*
X127645892Y-84832759D01*
X127646852Y-84842513D01*
X127645892Y-84852267D01*
X127643047Y-84861647D01*
X127638426Y-84870291D01*
X127632208Y-84877868D01*
X127597355Y-84912721D01*
X127589778Y-84918939D01*
X127581134Y-84923559D01*
X127571754Y-84926405D01*
X127562000Y-84927365D01*
X127490284Y-84927365D01*
X127480530Y-84926405D01*
X127471150Y-84923559D01*
X127462506Y-84918939D01*
X127454929Y-84912721D01*
X126995812Y-84453604D01*
X126989594Y-84446027D01*
X126984973Y-84437383D01*
X126982128Y-84428003D01*
X126981168Y-84418249D01*
X126982128Y-84408495D01*
X126984973Y-84399115D01*
X126989594Y-84390471D01*
X126995812Y-84382894D01*
X127066523Y-84312183D01*
X127074100Y-84305965D01*
X127082744Y-84301344D01*
X127092124Y-84298499D01*
X127101878Y-84297539D01*
X127111632Y-84298499D01*
X127121012Y-84301344D01*
X127129656Y-84305965D01*
X127137233Y-84312183D01*
X127632208Y-84807158D01*
X127638426Y-84814735D01*
G37*
G04 #@! TD.AperFunction*
G04 #@! TA.AperFunction,SMDPad,CuDef*
G36*
X127638426Y-85309709D02*
G01*
X127643047Y-85318353D01*
X127645892Y-85327733D01*
X127646852Y-85337487D01*
X127645892Y-85347241D01*
X127643047Y-85356621D01*
X127638426Y-85365265D01*
X127632208Y-85372842D01*
X127137233Y-85867817D01*
X127129656Y-85874035D01*
X127121012Y-85878656D01*
X127111632Y-85881501D01*
X127101878Y-85882461D01*
X127092124Y-85881501D01*
X127082744Y-85878656D01*
X127074100Y-85874035D01*
X127066523Y-85867817D01*
X126995812Y-85797106D01*
X126989594Y-85789529D01*
X126984973Y-85780885D01*
X126982128Y-85771505D01*
X126981168Y-85761751D01*
X126982128Y-85751997D01*
X126984973Y-85742617D01*
X126989594Y-85733973D01*
X126995812Y-85726396D01*
X127454929Y-85267279D01*
X127462506Y-85261061D01*
X127471150Y-85256441D01*
X127480530Y-85253595D01*
X127490284Y-85252635D01*
X127562000Y-85252635D01*
X127571754Y-85253595D01*
X127581134Y-85256441D01*
X127589778Y-85261061D01*
X127597355Y-85267279D01*
X127632208Y-85302132D01*
X127638426Y-85309709D01*
G37*
G04 #@! TD.AperFunction*
G04 #@! TA.AperFunction,SMDPad,CuDef*
G36*
X127813885Y-85499860D02*
G01*
X127818739Y-85500580D01*
X127823498Y-85501772D01*
X127828118Y-85503425D01*
X127832554Y-85505523D01*
X127836763Y-85508046D01*
X127840704Y-85510968D01*
X127844339Y-85514264D01*
X127915050Y-85584975D01*
X127918346Y-85588610D01*
X127921268Y-85592551D01*
X127923791Y-85596760D01*
X127925889Y-85601196D01*
X127927542Y-85605816D01*
X127928734Y-85610575D01*
X127929454Y-85615429D01*
X127929695Y-85620330D01*
X127929454Y-85625231D01*
X127928734Y-85630085D01*
X127927542Y-85634844D01*
X127925889Y-85639464D01*
X127923791Y-85643900D01*
X127921268Y-85648109D01*
X127918346Y-85652050D01*
X127915050Y-85655685D01*
X127420075Y-86150660D01*
X127416440Y-86153956D01*
X127412499Y-86156878D01*
X127408290Y-86159401D01*
X127403854Y-86161499D01*
X127399234Y-86163152D01*
X127394475Y-86164344D01*
X127389621Y-86165064D01*
X127384720Y-86165305D01*
X127379819Y-86165064D01*
X127374965Y-86164344D01*
X127370206Y-86163152D01*
X127365586Y-86161499D01*
X127361150Y-86159401D01*
X127356941Y-86156878D01*
X127353000Y-86153956D01*
X127349365Y-86150660D01*
X127278654Y-86079949D01*
X127275358Y-86076314D01*
X127272436Y-86072373D01*
X127269913Y-86068164D01*
X127267815Y-86063728D01*
X127266162Y-86059108D01*
X127264970Y-86054349D01*
X127264250Y-86049495D01*
X127264009Y-86044594D01*
X127264250Y-86039693D01*
X127264970Y-86034839D01*
X127266162Y-86030080D01*
X127267815Y-86025460D01*
X127269913Y-86021024D01*
X127272436Y-86016815D01*
X127275358Y-86012874D01*
X127278654Y-86009239D01*
X127773629Y-85514264D01*
X127777264Y-85510968D01*
X127781205Y-85508046D01*
X127785414Y-85505523D01*
X127789850Y-85503425D01*
X127794470Y-85501772D01*
X127799229Y-85500580D01*
X127804083Y-85499860D01*
X127808984Y-85499619D01*
X127813885Y-85499860D01*
G37*
G04 #@! TD.AperFunction*
G04 #@! TA.AperFunction,SMDPad,CuDef*
G36*
X128096728Y-85782703D02*
G01*
X128101582Y-85783423D01*
X128106341Y-85784615D01*
X128110961Y-85786268D01*
X128115397Y-85788366D01*
X128119606Y-85790889D01*
X128123547Y-85793811D01*
X128127182Y-85797107D01*
X128197893Y-85867818D01*
X128201189Y-85871453D01*
X128204111Y-85875394D01*
X128206634Y-85879603D01*
X128208732Y-85884039D01*
X128210385Y-85888659D01*
X128211577Y-85893418D01*
X128212297Y-85898272D01*
X128212538Y-85903173D01*
X128212297Y-85908074D01*
X128211577Y-85912928D01*
X128210385Y-85917687D01*
X128208732Y-85922307D01*
X128206634Y-85926743D01*
X128204111Y-85930952D01*
X128201189Y-85934893D01*
X128197893Y-85938528D01*
X127702918Y-86433503D01*
X127699283Y-86436799D01*
X127695342Y-86439721D01*
X127691133Y-86442244D01*
X127686697Y-86444342D01*
X127682077Y-86445995D01*
X127677318Y-86447187D01*
X127672464Y-86447907D01*
X127667563Y-86448148D01*
X127662662Y-86447907D01*
X127657808Y-86447187D01*
X127653049Y-86445995D01*
X127648429Y-86444342D01*
X127643993Y-86442244D01*
X127639784Y-86439721D01*
X127635843Y-86436799D01*
X127632208Y-86433503D01*
X127561497Y-86362792D01*
X127558201Y-86359157D01*
X127555279Y-86355216D01*
X127552756Y-86351007D01*
X127550658Y-86346571D01*
X127549005Y-86341951D01*
X127547813Y-86337192D01*
X127547093Y-86332338D01*
X127546852Y-86327437D01*
X127547093Y-86322536D01*
X127547813Y-86317682D01*
X127549005Y-86312923D01*
X127550658Y-86308303D01*
X127552756Y-86303867D01*
X127555279Y-86299658D01*
X127558201Y-86295717D01*
X127561497Y-86292082D01*
X128056472Y-85797107D01*
X128060107Y-85793811D01*
X128064048Y-85790889D01*
X128068257Y-85788366D01*
X128072693Y-85786268D01*
X128077313Y-85784615D01*
X128082072Y-85783423D01*
X128086926Y-85782703D01*
X128091827Y-85782462D01*
X128096728Y-85782703D01*
G37*
G04 #@! TD.AperFunction*
G04 #@! TA.AperFunction,SMDPad,CuDef*
G36*
X128379571Y-86065546D02*
G01*
X128384425Y-86066266D01*
X128389184Y-86067458D01*
X128393804Y-86069111D01*
X128398240Y-86071209D01*
X128402449Y-86073732D01*
X128406390Y-86076654D01*
X128410025Y-86079950D01*
X128480736Y-86150661D01*
X128484032Y-86154296D01*
X128486954Y-86158237D01*
X128489477Y-86162446D01*
X128491575Y-86166882D01*
X128493228Y-86171502D01*
X128494420Y-86176261D01*
X128495140Y-86181115D01*
X128495381Y-86186016D01*
X128495140Y-86190917D01*
X128494420Y-86195771D01*
X128493228Y-86200530D01*
X128491575Y-86205150D01*
X128489477Y-86209586D01*
X128486954Y-86213795D01*
X128484032Y-86217736D01*
X128480736Y-86221371D01*
X127985761Y-86716346D01*
X127982126Y-86719642D01*
X127978185Y-86722564D01*
X127973976Y-86725087D01*
X127969540Y-86727185D01*
X127964920Y-86728838D01*
X127960161Y-86730030D01*
X127955307Y-86730750D01*
X127950406Y-86730991D01*
X127945505Y-86730750D01*
X127940651Y-86730030D01*
X127935892Y-86728838D01*
X127931272Y-86727185D01*
X127926836Y-86725087D01*
X127922627Y-86722564D01*
X127918686Y-86719642D01*
X127915051Y-86716346D01*
X127844340Y-86645635D01*
X127841044Y-86642000D01*
X127838122Y-86638059D01*
X127835599Y-86633850D01*
X127833501Y-86629414D01*
X127831848Y-86624794D01*
X127830656Y-86620035D01*
X127829936Y-86615181D01*
X127829695Y-86610280D01*
X127829936Y-86605379D01*
X127830656Y-86600525D01*
X127831848Y-86595766D01*
X127833501Y-86591146D01*
X127835599Y-86586710D01*
X127838122Y-86582501D01*
X127841044Y-86578560D01*
X127844340Y-86574925D01*
X128339315Y-86079950D01*
X128342950Y-86076654D01*
X128346891Y-86073732D01*
X128351100Y-86071209D01*
X128355536Y-86069111D01*
X128360156Y-86067458D01*
X128364915Y-86066266D01*
X128369769Y-86065546D01*
X128374670Y-86065305D01*
X128379571Y-86065546D01*
G37*
G04 #@! TD.AperFunction*
G04 #@! TA.AperFunction,SMDPad,CuDef*
G36*
X128733939Y-86405222D02*
G01*
X128738559Y-86413866D01*
X128741405Y-86423246D01*
X128742365Y-86433000D01*
X128742365Y-86504716D01*
X128741405Y-86514470D01*
X128738559Y-86523850D01*
X128733939Y-86532494D01*
X128727721Y-86540071D01*
X128268604Y-86999188D01*
X128261027Y-87005406D01*
X128252383Y-87010027D01*
X128243003Y-87012872D01*
X128233249Y-87013832D01*
X128223495Y-87012872D01*
X128214115Y-87010027D01*
X128205471Y-87005406D01*
X128197894Y-86999188D01*
X128127183Y-86928477D01*
X128120965Y-86920900D01*
X128116344Y-86912256D01*
X128113499Y-86902876D01*
X128112539Y-86893122D01*
X128113499Y-86883368D01*
X128116344Y-86873988D01*
X128120965Y-86865344D01*
X128127183Y-86857767D01*
X128622158Y-86362792D01*
X128629735Y-86356574D01*
X128638379Y-86351953D01*
X128647759Y-86349108D01*
X128657513Y-86348148D01*
X128667267Y-86349108D01*
X128676647Y-86351953D01*
X128685291Y-86356574D01*
X128692868Y-86362792D01*
X128727721Y-86397645D01*
X128733939Y-86405222D01*
G37*
G04 #@! TD.AperFunction*
G04 #@! TA.AperFunction,SMDPad,CuDef*
G36*
X129689035Y-86865344D02*
G01*
X129693656Y-86873988D01*
X129696501Y-86883368D01*
X129697461Y-86893122D01*
X129696501Y-86902876D01*
X129693656Y-86912256D01*
X129689035Y-86920900D01*
X129682817Y-86928477D01*
X129612106Y-86999188D01*
X129604529Y-87005406D01*
X129595885Y-87010027D01*
X129586505Y-87012872D01*
X129576751Y-87013832D01*
X129566997Y-87012872D01*
X129557617Y-87010027D01*
X129548973Y-87005406D01*
X129541396Y-86999188D01*
X129082279Y-86540071D01*
X129076061Y-86532494D01*
X129071441Y-86523850D01*
X129068595Y-86514470D01*
X129067635Y-86504716D01*
X129067635Y-86433000D01*
X129068595Y-86423246D01*
X129071441Y-86413866D01*
X129076061Y-86405222D01*
X129082279Y-86397645D01*
X129117132Y-86362792D01*
X129124709Y-86356574D01*
X129133353Y-86351953D01*
X129142733Y-86349108D01*
X129152487Y-86348148D01*
X129162241Y-86349108D01*
X129171621Y-86351953D01*
X129180265Y-86356574D01*
X129187842Y-86362792D01*
X129682817Y-86857767D01*
X129689035Y-86865344D01*
G37*
G04 #@! TD.AperFunction*
G04 #@! TA.AperFunction,SMDPad,CuDef*
G36*
X129440231Y-86065546D02*
G01*
X129445085Y-86066266D01*
X129449844Y-86067458D01*
X129454464Y-86069111D01*
X129458900Y-86071209D01*
X129463109Y-86073732D01*
X129467050Y-86076654D01*
X129470685Y-86079950D01*
X129965660Y-86574925D01*
X129968956Y-86578560D01*
X129971878Y-86582501D01*
X129974401Y-86586710D01*
X129976499Y-86591146D01*
X129978152Y-86595766D01*
X129979344Y-86600525D01*
X129980064Y-86605379D01*
X129980305Y-86610280D01*
X129980064Y-86615181D01*
X129979344Y-86620035D01*
X129978152Y-86624794D01*
X129976499Y-86629414D01*
X129974401Y-86633850D01*
X129971878Y-86638059D01*
X129968956Y-86642000D01*
X129965660Y-86645635D01*
X129894949Y-86716346D01*
X129891314Y-86719642D01*
X129887373Y-86722564D01*
X129883164Y-86725087D01*
X129878728Y-86727185D01*
X129874108Y-86728838D01*
X129869349Y-86730030D01*
X129864495Y-86730750D01*
X129859594Y-86730991D01*
X129854693Y-86730750D01*
X129849839Y-86730030D01*
X129845080Y-86728838D01*
X129840460Y-86727185D01*
X129836024Y-86725087D01*
X129831815Y-86722564D01*
X129827874Y-86719642D01*
X129824239Y-86716346D01*
X129329264Y-86221371D01*
X129325968Y-86217736D01*
X129323046Y-86213795D01*
X129320523Y-86209586D01*
X129318425Y-86205150D01*
X129316772Y-86200530D01*
X129315580Y-86195771D01*
X129314860Y-86190917D01*
X129314619Y-86186016D01*
X129314860Y-86181115D01*
X129315580Y-86176261D01*
X129316772Y-86171502D01*
X129318425Y-86166882D01*
X129320523Y-86162446D01*
X129323046Y-86158237D01*
X129325968Y-86154296D01*
X129329264Y-86150661D01*
X129399975Y-86079950D01*
X129403610Y-86076654D01*
X129407551Y-86073732D01*
X129411760Y-86071209D01*
X129416196Y-86069111D01*
X129420816Y-86067458D01*
X129425575Y-86066266D01*
X129430429Y-86065546D01*
X129435330Y-86065305D01*
X129440231Y-86065546D01*
G37*
G04 #@! TD.AperFunction*
G04 #@! TA.AperFunction,SMDPad,CuDef*
G36*
X129723074Y-85782703D02*
G01*
X129727928Y-85783423D01*
X129732687Y-85784615D01*
X129737307Y-85786268D01*
X129741743Y-85788366D01*
X129745952Y-85790889D01*
X129749893Y-85793811D01*
X129753528Y-85797107D01*
X130248503Y-86292082D01*
X130251799Y-86295717D01*
X130254721Y-86299658D01*
X130257244Y-86303867D01*
X130259342Y-86308303D01*
X130260995Y-86312923D01*
X130262187Y-86317682D01*
X130262907Y-86322536D01*
X130263148Y-86327437D01*
X130262907Y-86332338D01*
X130262187Y-86337192D01*
X130260995Y-86341951D01*
X130259342Y-86346571D01*
X130257244Y-86351007D01*
X130254721Y-86355216D01*
X130251799Y-86359157D01*
X130248503Y-86362792D01*
X130177792Y-86433503D01*
X130174157Y-86436799D01*
X130170216Y-86439721D01*
X130166007Y-86442244D01*
X130161571Y-86444342D01*
X130156951Y-86445995D01*
X130152192Y-86447187D01*
X130147338Y-86447907D01*
X130142437Y-86448148D01*
X130137536Y-86447907D01*
X130132682Y-86447187D01*
X130127923Y-86445995D01*
X130123303Y-86444342D01*
X130118867Y-86442244D01*
X130114658Y-86439721D01*
X130110717Y-86436799D01*
X130107082Y-86433503D01*
X129612107Y-85938528D01*
X129608811Y-85934893D01*
X129605889Y-85930952D01*
X129603366Y-85926743D01*
X129601268Y-85922307D01*
X129599615Y-85917687D01*
X129598423Y-85912928D01*
X129597703Y-85908074D01*
X129597462Y-85903173D01*
X129597703Y-85898272D01*
X129598423Y-85893418D01*
X129599615Y-85888659D01*
X129601268Y-85884039D01*
X129603366Y-85879603D01*
X129605889Y-85875394D01*
X129608811Y-85871453D01*
X129612107Y-85867818D01*
X129682818Y-85797107D01*
X129686453Y-85793811D01*
X129690394Y-85790889D01*
X129694603Y-85788366D01*
X129699039Y-85786268D01*
X129703659Y-85784615D01*
X129708418Y-85783423D01*
X129713272Y-85782703D01*
X129718173Y-85782462D01*
X129723074Y-85782703D01*
G37*
G04 #@! TD.AperFunction*
G04 #@! TA.AperFunction,SMDPad,CuDef*
G36*
X130005917Y-85499860D02*
G01*
X130010771Y-85500580D01*
X130015530Y-85501772D01*
X130020150Y-85503425D01*
X130024586Y-85505523D01*
X130028795Y-85508046D01*
X130032736Y-85510968D01*
X130036371Y-85514264D01*
X130531346Y-86009239D01*
X130534642Y-86012874D01*
X130537564Y-86016815D01*
X130540087Y-86021024D01*
X130542185Y-86025460D01*
X130543838Y-86030080D01*
X130545030Y-86034839D01*
X130545750Y-86039693D01*
X130545991Y-86044594D01*
X130545750Y-86049495D01*
X130545030Y-86054349D01*
X130543838Y-86059108D01*
X130542185Y-86063728D01*
X130540087Y-86068164D01*
X130537564Y-86072373D01*
X130534642Y-86076314D01*
X130531346Y-86079949D01*
X130460635Y-86150660D01*
X130457000Y-86153956D01*
X130453059Y-86156878D01*
X130448850Y-86159401D01*
X130444414Y-86161499D01*
X130439794Y-86163152D01*
X130435035Y-86164344D01*
X130430181Y-86165064D01*
X130425280Y-86165305D01*
X130420379Y-86165064D01*
X130415525Y-86164344D01*
X130410766Y-86163152D01*
X130406146Y-86161499D01*
X130401710Y-86159401D01*
X130397501Y-86156878D01*
X130393560Y-86153956D01*
X130389925Y-86150660D01*
X129894950Y-85655685D01*
X129891654Y-85652050D01*
X129888732Y-85648109D01*
X129886209Y-85643900D01*
X129884111Y-85639464D01*
X129882458Y-85634844D01*
X129881266Y-85630085D01*
X129880546Y-85625231D01*
X129880305Y-85620330D01*
X129880546Y-85615429D01*
X129881266Y-85610575D01*
X129882458Y-85605816D01*
X129884111Y-85601196D01*
X129886209Y-85596760D01*
X129888732Y-85592551D01*
X129891654Y-85588610D01*
X129894950Y-85584975D01*
X129965661Y-85514264D01*
X129969296Y-85510968D01*
X129973237Y-85508046D01*
X129977446Y-85505523D01*
X129981882Y-85503425D01*
X129986502Y-85501772D01*
X129991261Y-85500580D01*
X129996115Y-85499860D01*
X130001016Y-85499619D01*
X130005917Y-85499860D01*
G37*
G04 #@! TD.AperFunction*
G04 #@! TA.AperFunction,SMDPad,CuDef*
G36*
X130820406Y-85733973D02*
G01*
X130825027Y-85742617D01*
X130827872Y-85751997D01*
X130828832Y-85761751D01*
X130827872Y-85771505D01*
X130825027Y-85780885D01*
X130820406Y-85789529D01*
X130814188Y-85797106D01*
X130743477Y-85867817D01*
X130735900Y-85874035D01*
X130727256Y-85878656D01*
X130717876Y-85881501D01*
X130708122Y-85882461D01*
X130698368Y-85881501D01*
X130688988Y-85878656D01*
X130680344Y-85874035D01*
X130672767Y-85867817D01*
X130177792Y-85372842D01*
X130171574Y-85365265D01*
X130166953Y-85356621D01*
X130164108Y-85347241D01*
X130163148Y-85337487D01*
X130164108Y-85327733D01*
X130166953Y-85318353D01*
X130171574Y-85309709D01*
X130177792Y-85302132D01*
X130212645Y-85267279D01*
X130220222Y-85261061D01*
X130228866Y-85256441D01*
X130238246Y-85253595D01*
X130248000Y-85252635D01*
X130319716Y-85252635D01*
X130329470Y-85253595D01*
X130338850Y-85256441D01*
X130347494Y-85261061D01*
X130355071Y-85267279D01*
X130814188Y-85726396D01*
X130820406Y-85733973D01*
G37*
G04 #@! TD.AperFunction*
G04 #@! TA.AperFunction,SMDPad,CuDef*
G36*
X130820406Y-84390471D02*
G01*
X130825027Y-84399115D01*
X130827872Y-84408495D01*
X130828832Y-84418249D01*
X130827872Y-84428003D01*
X130825027Y-84437383D01*
X130820406Y-84446027D01*
X130814188Y-84453604D01*
X130355071Y-84912721D01*
X130347494Y-84918939D01*
X130338850Y-84923559D01*
X130329470Y-84926405D01*
X130319716Y-84927365D01*
X130248000Y-84927365D01*
X130238246Y-84926405D01*
X130228866Y-84923559D01*
X130220222Y-84918939D01*
X130212645Y-84912721D01*
X130177792Y-84877868D01*
X130171574Y-84870291D01*
X130166953Y-84861647D01*
X130164108Y-84852267D01*
X130163148Y-84842513D01*
X130164108Y-84832759D01*
X130166953Y-84823379D01*
X130171574Y-84814735D01*
X130177792Y-84807158D01*
X130672767Y-84312183D01*
X130680344Y-84305965D01*
X130688988Y-84301344D01*
X130698368Y-84298499D01*
X130708122Y-84297539D01*
X130717876Y-84298499D01*
X130727256Y-84301344D01*
X130735900Y-84305965D01*
X130743477Y-84312183D01*
X130814188Y-84382894D01*
X130820406Y-84390471D01*
G37*
G04 #@! TD.AperFunction*
G04 #@! TA.AperFunction,SMDPad,CuDef*
G36*
X130430181Y-84014936D02*
G01*
X130435035Y-84015656D01*
X130439794Y-84016848D01*
X130444414Y-84018501D01*
X130448850Y-84020599D01*
X130453059Y-84023122D01*
X130457000Y-84026044D01*
X130460635Y-84029340D01*
X130531346Y-84100051D01*
X130534642Y-84103686D01*
X130537564Y-84107627D01*
X130540087Y-84111836D01*
X130542185Y-84116272D01*
X130543838Y-84120892D01*
X130545030Y-84125651D01*
X130545750Y-84130505D01*
X130545991Y-84135406D01*
X130545750Y-84140307D01*
X130545030Y-84145161D01*
X130543838Y-84149920D01*
X130542185Y-84154540D01*
X130540087Y-84158976D01*
X130537564Y-84163185D01*
X130534642Y-84167126D01*
X130531346Y-84170761D01*
X130036371Y-84665736D01*
X130032736Y-84669032D01*
X130028795Y-84671954D01*
X130024586Y-84674477D01*
X130020150Y-84676575D01*
X130015530Y-84678228D01*
X130010771Y-84679420D01*
X130005917Y-84680140D01*
X130001016Y-84680381D01*
X129996115Y-84680140D01*
X129991261Y-84679420D01*
X129986502Y-84678228D01*
X129981882Y-84676575D01*
X129977446Y-84674477D01*
X129973237Y-84671954D01*
X129969296Y-84669032D01*
X129965661Y-84665736D01*
X129894950Y-84595025D01*
X129891654Y-84591390D01*
X129888732Y-84587449D01*
X129886209Y-84583240D01*
X129884111Y-84578804D01*
X129882458Y-84574184D01*
X129881266Y-84569425D01*
X129880546Y-84564571D01*
X129880305Y-84559670D01*
X129880546Y-84554769D01*
X129881266Y-84549915D01*
X129882458Y-84545156D01*
X129884111Y-84540536D01*
X129886209Y-84536100D01*
X129888732Y-84531891D01*
X129891654Y-84527950D01*
X129894950Y-84524315D01*
X130389925Y-84029340D01*
X130393560Y-84026044D01*
X130397501Y-84023122D01*
X130401710Y-84020599D01*
X130406146Y-84018501D01*
X130410766Y-84016848D01*
X130415525Y-84015656D01*
X130420379Y-84014936D01*
X130425280Y-84014695D01*
X130430181Y-84014936D01*
G37*
G04 #@! TD.AperFunction*
G04 #@! TA.AperFunction,SMDPad,CuDef*
G36*
X130147338Y-83732093D02*
G01*
X130152192Y-83732813D01*
X130156951Y-83734005D01*
X130161571Y-83735658D01*
X130166007Y-83737756D01*
X130170216Y-83740279D01*
X130174157Y-83743201D01*
X130177792Y-83746497D01*
X130248503Y-83817208D01*
X130251799Y-83820843D01*
X130254721Y-83824784D01*
X130257244Y-83828993D01*
X130259342Y-83833429D01*
X130260995Y-83838049D01*
X130262187Y-83842808D01*
X130262907Y-83847662D01*
X130263148Y-83852563D01*
X130262907Y-83857464D01*
X130262187Y-83862318D01*
X130260995Y-83867077D01*
X130259342Y-83871697D01*
X130257244Y-83876133D01*
X130254721Y-83880342D01*
X130251799Y-83884283D01*
X130248503Y-83887918D01*
X129753528Y-84382893D01*
X129749893Y-84386189D01*
X129745952Y-84389111D01*
X129741743Y-84391634D01*
X129737307Y-84393732D01*
X129732687Y-84395385D01*
X129727928Y-84396577D01*
X129723074Y-84397297D01*
X129718173Y-84397538D01*
X129713272Y-84397297D01*
X129708418Y-84396577D01*
X129703659Y-84395385D01*
X129699039Y-84393732D01*
X129694603Y-84391634D01*
X129690394Y-84389111D01*
X129686453Y-84386189D01*
X129682818Y-84382893D01*
X129612107Y-84312182D01*
X129608811Y-84308547D01*
X129605889Y-84304606D01*
X129603366Y-84300397D01*
X129601268Y-84295961D01*
X129599615Y-84291341D01*
X129598423Y-84286582D01*
X129597703Y-84281728D01*
X129597462Y-84276827D01*
X129597703Y-84271926D01*
X129598423Y-84267072D01*
X129599615Y-84262313D01*
X129601268Y-84257693D01*
X129603366Y-84253257D01*
X129605889Y-84249048D01*
X129608811Y-84245107D01*
X129612107Y-84241472D01*
X130107082Y-83746497D01*
X130110717Y-83743201D01*
X130114658Y-83740279D01*
X130118867Y-83737756D01*
X130123303Y-83735658D01*
X130127923Y-83734005D01*
X130132682Y-83732813D01*
X130137536Y-83732093D01*
X130142437Y-83731852D01*
X130147338Y-83732093D01*
G37*
G04 #@! TD.AperFunction*
G04 #@! TA.AperFunction,SMDPad,CuDef*
G36*
X129864495Y-83449250D02*
G01*
X129869349Y-83449970D01*
X129874108Y-83451162D01*
X129878728Y-83452815D01*
X129883164Y-83454913D01*
X129887373Y-83457436D01*
X129891314Y-83460358D01*
X129894949Y-83463654D01*
X129965660Y-83534365D01*
X129968956Y-83538000D01*
X129971878Y-83541941D01*
X129974401Y-83546150D01*
X129976499Y-83550586D01*
X129978152Y-83555206D01*
X129979344Y-83559965D01*
X129980064Y-83564819D01*
X129980305Y-83569720D01*
X129980064Y-83574621D01*
X129979344Y-83579475D01*
X129978152Y-83584234D01*
X129976499Y-83588854D01*
X129974401Y-83593290D01*
X129971878Y-83597499D01*
X129968956Y-83601440D01*
X129965660Y-83605075D01*
X129470685Y-84100050D01*
X129467050Y-84103346D01*
X129463109Y-84106268D01*
X129458900Y-84108791D01*
X129454464Y-84110889D01*
X129449844Y-84112542D01*
X129445085Y-84113734D01*
X129440231Y-84114454D01*
X129435330Y-84114695D01*
X129430429Y-84114454D01*
X129425575Y-84113734D01*
X129420816Y-84112542D01*
X129416196Y-84110889D01*
X129411760Y-84108791D01*
X129407551Y-84106268D01*
X129403610Y-84103346D01*
X129399975Y-84100050D01*
X129329264Y-84029339D01*
X129325968Y-84025704D01*
X129323046Y-84021763D01*
X129320523Y-84017554D01*
X129318425Y-84013118D01*
X129316772Y-84008498D01*
X129315580Y-84003739D01*
X129314860Y-83998885D01*
X129314619Y-83993984D01*
X129314860Y-83989083D01*
X129315580Y-83984229D01*
X129316772Y-83979470D01*
X129318425Y-83974850D01*
X129320523Y-83970414D01*
X129323046Y-83966205D01*
X129325968Y-83962264D01*
X129329264Y-83958629D01*
X129824239Y-83463654D01*
X129827874Y-83460358D01*
X129831815Y-83457436D01*
X129836024Y-83454913D01*
X129840460Y-83452815D01*
X129845080Y-83451162D01*
X129849839Y-83449970D01*
X129854693Y-83449250D01*
X129859594Y-83449009D01*
X129864495Y-83449250D01*
G37*
G04 #@! TD.AperFunction*
G04 #@! TA.AperFunction,SMDPad,CuDef*
G36*
X129689035Y-83259100D02*
G01*
X129693656Y-83267744D01*
X129696501Y-83277124D01*
X129697461Y-83286878D01*
X129696501Y-83296632D01*
X129693656Y-83306012D01*
X129689035Y-83314656D01*
X129682817Y-83322233D01*
X129187842Y-83817208D01*
X129180265Y-83823426D01*
X129171621Y-83828047D01*
X129162241Y-83830892D01*
X129152487Y-83831852D01*
X129142733Y-83830892D01*
X129133353Y-83828047D01*
X129124709Y-83823426D01*
X129117132Y-83817208D01*
X129082279Y-83782355D01*
X129076061Y-83774778D01*
X129071441Y-83766134D01*
X129068595Y-83756754D01*
X129067635Y-83747000D01*
X129067635Y-83675284D01*
X129068595Y-83665530D01*
X129071441Y-83656150D01*
X129076061Y-83647506D01*
X129082279Y-83639929D01*
X129541396Y-83180812D01*
X129548973Y-83174594D01*
X129557617Y-83169973D01*
X129566997Y-83167128D01*
X129576751Y-83166168D01*
X129586505Y-83167128D01*
X129595885Y-83169973D01*
X129604529Y-83174594D01*
X129612106Y-83180812D01*
X129682817Y-83251523D01*
X129689035Y-83259100D01*
G37*
G04 #@! TD.AperFunction*
D14*
X127635000Y-78613000D03*
X127635000Y-76073000D03*
X128778000Y-79121000D03*
X130175000Y-97155000D03*
D15*
X128905000Y-85090000D03*
D16*
X126111000Y-77216000D02*
X125095000Y-76200000D01*
X130540023Y-78089023D02*
X129667000Y-77216000D01*
X130540023Y-81444828D02*
X130540023Y-78089023D01*
X129667000Y-77216000D02*
X126111000Y-77216000D01*
X129364619Y-82620232D02*
X130540023Y-81444828D01*
X129364619Y-83499010D02*
X129364619Y-82620232D01*
X126047400Y-73660000D02*
X125095000Y-73660000D01*
X126365000Y-73977600D02*
X126047400Y-73660000D01*
X126365000Y-76200000D02*
X126365000Y-73977600D01*
X129794000Y-76835000D02*
X127000000Y-76835000D01*
X130892434Y-77933434D02*
X129794000Y-76835000D01*
X130892433Y-81590802D02*
X130892434Y-77933434D01*
X130533733Y-81949502D02*
X130892433Y-81590802D01*
X130533732Y-82895582D02*
X130533733Y-81949502D01*
X127000000Y-76835000D02*
X126365000Y-76200000D01*
X129647462Y-83781852D02*
X130533732Y-82895582D01*
X132715000Y-88334314D02*
X130213148Y-85832462D01*
X132715000Y-88900000D02*
X132715000Y-88334314D01*
X131638799Y-87823799D02*
X129930305Y-86115305D01*
X131638799Y-90363799D02*
X131638799Y-87823799D01*
X132715000Y-91440000D02*
X131638799Y-90363799D01*
X125905381Y-85549619D02*
X125095000Y-86360000D01*
X127314010Y-85549619D02*
X125905381Y-85549619D01*
X125894999Y-88100001D02*
X125095000Y-88900000D01*
X125894999Y-87534315D02*
X125894999Y-88100001D01*
X127596852Y-85832462D02*
X125894999Y-87534315D01*
X125894999Y-90640001D02*
X125095000Y-91440000D01*
X127254000Y-89344500D02*
X125894999Y-90640001D01*
X127254000Y-86741000D02*
X127254000Y-89344500D01*
X127879695Y-86115305D02*
X127254000Y-86741000D01*
X125894999Y-93180001D02*
X125095000Y-93980000D01*
X127635000Y-91186000D02*
X125894999Y-93180001D01*
X127635000Y-86931500D02*
X127635000Y-91186000D01*
X128162538Y-86398148D02*
X127635000Y-86931500D01*
X129364619Y-86822411D02*
X129364619Y-86680990D01*
X129364619Y-94300989D02*
X129364619Y-86822411D01*
X132715000Y-96520000D02*
X131583630Y-96520000D01*
X131583630Y-96520000D02*
X129364619Y-94300989D01*
X131286388Y-92551388D02*
X131286388Y-88037074D01*
X132715000Y-93980000D02*
X131286388Y-92551388D01*
X131286388Y-88037074D02*
X129647462Y-86398148D01*
X130886143Y-82095476D02*
X131244843Y-81736776D01*
X130213148Y-84347538D02*
X130886142Y-83674544D01*
X131244843Y-81736776D02*
X131244843Y-77670157D01*
X130886142Y-83674544D02*
X130886143Y-82095476D01*
X131244843Y-77670157D02*
X131915001Y-76999999D01*
X131915001Y-76999999D02*
X132715000Y-76200000D01*
X130637411Y-84630381D02*
X131238553Y-84029239D01*
X131238553Y-84029239D02*
X131238553Y-82241450D01*
X131915001Y-79539999D02*
X132715000Y-78740000D01*
X131597254Y-79857746D02*
X131915001Y-79539999D01*
X131238553Y-82241450D02*
X131597254Y-81882749D01*
X131597254Y-81882749D02*
X131597254Y-79857746D01*
X130495990Y-84630381D02*
X130637411Y-84630381D01*
X131915001Y-82079999D02*
X132715000Y-81280000D01*
X131638799Y-84548231D02*
X131638799Y-82356201D01*
X131638799Y-82356201D02*
X131915001Y-82079999D01*
X130637411Y-85549619D02*
X131638799Y-84548231D01*
X130495990Y-85549619D02*
X130637411Y-85549619D01*
X126503629Y-83820000D02*
X127314010Y-84630381D01*
X125095000Y-83820000D02*
X126503629Y-83820000D01*
X126825782Y-83576468D02*
X126825782Y-82533718D01*
X127596852Y-84347538D02*
X126825782Y-83576468D01*
D17*
X127635000Y-79178685D02*
X127635000Y-78613000D01*
X126825782Y-80436807D02*
X127635000Y-79627589D01*
X126825782Y-82533718D02*
X126825782Y-80436807D01*
X127635000Y-79627589D02*
X127635000Y-79178685D01*
X133840001Y-74785001D02*
X133514999Y-74459999D01*
X133514999Y-74459999D02*
X132715000Y-73660000D01*
X133840001Y-97697337D02*
X133840001Y-74785001D01*
X130830828Y-100706510D02*
X133840001Y-97697337D01*
X128219918Y-100706510D02*
X130830828Y-100706510D01*
X127892500Y-100379092D02*
X128219918Y-100706510D01*
X127892500Y-99631500D02*
X127892500Y-100379092D01*
D18*
X129482315Y-73660000D02*
X127635000Y-75507315D01*
X127635000Y-75507315D02*
X127635000Y-76073000D01*
X132715000Y-73660000D02*
X129482315Y-73660000D01*
D17*
X128063218Y-81296282D02*
X128063218Y-79835782D01*
X128063218Y-79835782D02*
X128778000Y-79121000D01*
D16*
X130492500Y-97472500D02*
X130175000Y-97155000D01*
X130492500Y-99631500D02*
X130492500Y-97472500D01*
X128063218Y-81901531D02*
X128063218Y-81296282D01*
X128016000Y-82232500D02*
X128063218Y-81901531D01*
X127381000Y-82867500D02*
X128016000Y-82232500D01*
X127317500Y-83502500D02*
X127381000Y-82867500D01*
X127879695Y-84064695D02*
X127317500Y-83502500D01*
X126958798Y-79416202D02*
X125894999Y-80480001D01*
X125894999Y-80480001D02*
X125095000Y-81280000D01*
X126958798Y-78288422D02*
X126958798Y-79416202D01*
X127310422Y-77936798D02*
X126958798Y-78288422D01*
X129264030Y-77936798D02*
X127310422Y-77936798D01*
X129724179Y-78396947D02*
X129264030Y-77936798D01*
X129667000Y-81216500D02*
X129724179Y-78396947D01*
X127889000Y-82867500D02*
X129667000Y-81216500D01*
X127698500Y-83322614D02*
X127889000Y-82867500D01*
X128162538Y-83781852D02*
X127698500Y-83322614D01*
X129410003Y-77584387D02*
X126250613Y-77584387D01*
X126250613Y-77584387D02*
X125894999Y-77940001D01*
X125894999Y-77940001D02*
X125095000Y-78740000D01*
X128445381Y-83499010D02*
X128445381Y-83041086D01*
X128445381Y-83041086D02*
X130076590Y-81409877D01*
X130076590Y-81409877D02*
X130076590Y-78250974D01*
X130076590Y-78250974D02*
X129410003Y-77584387D01*
X128445381Y-97981981D02*
X129192500Y-98729100D01*
X128445381Y-86680990D02*
X128445381Y-97981981D01*
X129192500Y-98729100D02*
X129192500Y-99631500D01*
M02*
