G04 #@! TF.GenerationSoftware,KiCad,Pcbnew,5.1.5+dfsg1-2build2*
G04 #@! TF.CreationDate,2020-10-22T12:15:37+02:00*
G04 #@! TF.ProjectId,Tandberg-TD20A-U3-Arduino,54616e64-6265-4726-972d-54443230412d,rev?*
G04 #@! TF.SameCoordinates,Original*
G04 #@! TF.FileFunction,Soldermask,Top*
G04 #@! TF.FilePolarity,Negative*
%FSLAX46Y46*%
G04 Gerber Fmt 4.6, Leading zero omitted, Abs format (unit mm)*
G04 Created by KiCad (PCBNEW 5.1.5+dfsg1-2build2) date 2020-10-22 12:15:37*
%MOMM*%
%LPD*%
G04 APERTURE LIST*
%ADD10C,0.100000*%
G04 APERTURE END LIST*
D10*
G36*
X128452499Y-98831237D02*
G01*
X128467028Y-98835645D01*
X128480211Y-98841106D01*
X128504245Y-98845888D01*
X128528749Y-98845889D01*
X128552782Y-98841109D01*
X128575421Y-98831732D01*
X128577265Y-98830500D01*
X129808550Y-98830500D01*
X129820664Y-98836975D01*
X129844113Y-98844088D01*
X129868499Y-98846490D01*
X129892885Y-98844088D01*
X129916334Y-98836975D01*
X129921246Y-98834652D01*
X129932501Y-98831237D01*
X129948640Y-98829648D01*
X130486361Y-98829648D01*
X130504699Y-98831454D01*
X130516950Y-98832056D01*
X130535369Y-98832056D01*
X130557649Y-98834250D01*
X130641733Y-98850976D01*
X130663160Y-98857476D01*
X130742358Y-98890280D01*
X130747803Y-98893191D01*
X130747809Y-98893193D01*
X130756669Y-98897929D01*
X130756673Y-98897932D01*
X130762114Y-98900840D01*
X130833399Y-98948471D01*
X130850704Y-98962672D01*
X130911328Y-99023296D01*
X130925529Y-99040601D01*
X130973160Y-99111886D01*
X130976068Y-99117327D01*
X130976071Y-99117331D01*
X130980807Y-99126191D01*
X130980809Y-99126197D01*
X130983720Y-99131642D01*
X131016524Y-99210840D01*
X131023024Y-99232267D01*
X131039750Y-99316351D01*
X131041944Y-99338631D01*
X131041944Y-99357050D01*
X131042546Y-99369301D01*
X131044352Y-99387639D01*
X131044352Y-99875362D01*
X131042546Y-99893699D01*
X131041944Y-99905950D01*
X131041944Y-99924369D01*
X131039750Y-99946649D01*
X131023024Y-100030733D01*
X131016524Y-100052160D01*
X130983720Y-100131358D01*
X130980809Y-100136803D01*
X130980807Y-100136809D01*
X130976071Y-100145669D01*
X130976068Y-100145673D01*
X130973160Y-100151114D01*
X130925529Y-100222399D01*
X130911328Y-100239704D01*
X130850704Y-100300328D01*
X130833399Y-100314529D01*
X130762114Y-100362160D01*
X130756673Y-100365068D01*
X130756669Y-100365071D01*
X130747809Y-100369807D01*
X130747803Y-100369809D01*
X130742358Y-100372720D01*
X130663160Y-100405524D01*
X130641733Y-100412024D01*
X130557649Y-100428750D01*
X130535369Y-100430944D01*
X130516950Y-100430944D01*
X130504699Y-100431546D01*
X130486362Y-100433352D01*
X129948640Y-100433352D01*
X129932501Y-100431763D01*
X129917972Y-100427355D01*
X129904789Y-100421894D01*
X129880755Y-100417112D01*
X129856251Y-100417111D01*
X129832218Y-100421891D01*
X129809579Y-100431268D01*
X129807735Y-100432500D01*
X128576450Y-100432500D01*
X128564336Y-100426025D01*
X128540887Y-100418912D01*
X128516501Y-100416510D01*
X128492115Y-100418912D01*
X128468666Y-100426025D01*
X128463754Y-100428348D01*
X128452499Y-100431763D01*
X128436360Y-100433352D01*
X127898638Y-100433352D01*
X127880301Y-100431546D01*
X127868050Y-100430944D01*
X127849631Y-100430944D01*
X127827351Y-100428750D01*
X127743267Y-100412024D01*
X127721840Y-100405524D01*
X127642642Y-100372720D01*
X127637197Y-100369809D01*
X127637191Y-100369807D01*
X127628331Y-100365071D01*
X127628327Y-100365068D01*
X127622886Y-100362160D01*
X127551601Y-100314529D01*
X127534296Y-100300328D01*
X127473672Y-100239704D01*
X127459471Y-100222399D01*
X127411840Y-100151114D01*
X127408932Y-100145673D01*
X127408929Y-100145669D01*
X127404193Y-100136809D01*
X127404191Y-100136803D01*
X127401280Y-100131358D01*
X127368476Y-100052160D01*
X127361976Y-100030733D01*
X127345250Y-99946649D01*
X127343056Y-99924369D01*
X127343056Y-99905950D01*
X127342454Y-99893699D01*
X127340648Y-99875362D01*
X127340648Y-99387639D01*
X127342454Y-99369301D01*
X127343056Y-99357050D01*
X127343056Y-99338631D01*
X127345250Y-99316351D01*
X127361976Y-99232267D01*
X127368476Y-99210840D01*
X127401280Y-99131642D01*
X127404191Y-99126197D01*
X127404193Y-99126191D01*
X127408929Y-99117331D01*
X127408932Y-99117327D01*
X127411840Y-99111886D01*
X127459471Y-99040601D01*
X127473672Y-99023296D01*
X127534296Y-98962672D01*
X127551601Y-98948471D01*
X127622886Y-98900840D01*
X127628327Y-98897932D01*
X127628331Y-98897929D01*
X127637191Y-98893193D01*
X127637197Y-98893191D01*
X127642642Y-98890280D01*
X127721840Y-98857476D01*
X127743267Y-98850976D01*
X127827351Y-98834250D01*
X127849631Y-98832056D01*
X127868050Y-98832056D01*
X127880301Y-98831454D01*
X127898639Y-98829648D01*
X128436360Y-98829648D01*
X128452499Y-98831237D01*
G37*
G36*
X125343228Y-95701703D02*
G01*
X125498100Y-95765853D01*
X125637481Y-95858985D01*
X125756015Y-95977519D01*
X125849147Y-96116900D01*
X125913297Y-96271772D01*
X125946000Y-96436184D01*
X125946000Y-96603816D01*
X125913297Y-96768228D01*
X125849147Y-96923100D01*
X125756015Y-97062481D01*
X125637481Y-97181015D01*
X125498100Y-97274147D01*
X125343228Y-97338297D01*
X125178816Y-97371000D01*
X125011184Y-97371000D01*
X124846772Y-97338297D01*
X124691900Y-97274147D01*
X124552519Y-97181015D01*
X124433985Y-97062481D01*
X124340853Y-96923100D01*
X124276703Y-96768228D01*
X124244000Y-96603816D01*
X124244000Y-96436184D01*
X124276703Y-96271772D01*
X124340853Y-96116900D01*
X124433985Y-95977519D01*
X124552519Y-95858985D01*
X124691900Y-95765853D01*
X124846772Y-95701703D01*
X125011184Y-95669000D01*
X125178816Y-95669000D01*
X125343228Y-95701703D01*
G37*
G36*
X132963228Y-95701703D02*
G01*
X133118100Y-95765853D01*
X133257481Y-95858985D01*
X133376015Y-95977519D01*
X133469147Y-96116900D01*
X133533297Y-96271772D01*
X133566000Y-96436184D01*
X133566000Y-96603816D01*
X133533297Y-96768228D01*
X133469147Y-96923100D01*
X133376015Y-97062481D01*
X133257481Y-97181015D01*
X133118100Y-97274147D01*
X132963228Y-97338297D01*
X132798816Y-97371000D01*
X132631184Y-97371000D01*
X132466772Y-97338297D01*
X132311900Y-97274147D01*
X132172519Y-97181015D01*
X132053985Y-97062481D01*
X131960853Y-96923100D01*
X131896703Y-96768228D01*
X131864000Y-96603816D01*
X131864000Y-96436184D01*
X131896703Y-96271772D01*
X131960853Y-96116900D01*
X132053985Y-95977519D01*
X132172519Y-95858985D01*
X132311900Y-95765853D01*
X132466772Y-95701703D01*
X132631184Y-95669000D01*
X132798816Y-95669000D01*
X132963228Y-95701703D01*
G37*
G36*
X132963228Y-93161703D02*
G01*
X133118100Y-93225853D01*
X133257481Y-93318985D01*
X133376015Y-93437519D01*
X133469147Y-93576900D01*
X133533297Y-93731772D01*
X133566000Y-93896184D01*
X133566000Y-94063816D01*
X133533297Y-94228228D01*
X133469147Y-94383100D01*
X133376015Y-94522481D01*
X133257481Y-94641015D01*
X133118100Y-94734147D01*
X132963228Y-94798297D01*
X132798816Y-94831000D01*
X132631184Y-94831000D01*
X132466772Y-94798297D01*
X132311900Y-94734147D01*
X132172519Y-94641015D01*
X132053985Y-94522481D01*
X131960853Y-94383100D01*
X131896703Y-94228228D01*
X131864000Y-94063816D01*
X131864000Y-93896184D01*
X131896703Y-93731772D01*
X131960853Y-93576900D01*
X132053985Y-93437519D01*
X132172519Y-93318985D01*
X132311900Y-93225853D01*
X132466772Y-93161703D01*
X132631184Y-93129000D01*
X132798816Y-93129000D01*
X132963228Y-93161703D01*
G37*
G36*
X125343228Y-93161703D02*
G01*
X125498100Y-93225853D01*
X125637481Y-93318985D01*
X125756015Y-93437519D01*
X125849147Y-93576900D01*
X125913297Y-93731772D01*
X125946000Y-93896184D01*
X125946000Y-94063816D01*
X125913297Y-94228228D01*
X125849147Y-94383100D01*
X125756015Y-94522481D01*
X125637481Y-94641015D01*
X125498100Y-94734147D01*
X125343228Y-94798297D01*
X125178816Y-94831000D01*
X125011184Y-94831000D01*
X124846772Y-94798297D01*
X124691900Y-94734147D01*
X124552519Y-94641015D01*
X124433985Y-94522481D01*
X124340853Y-94383100D01*
X124276703Y-94228228D01*
X124244000Y-94063816D01*
X124244000Y-93896184D01*
X124276703Y-93731772D01*
X124340853Y-93576900D01*
X124433985Y-93437519D01*
X124552519Y-93318985D01*
X124691900Y-93225853D01*
X124846772Y-93161703D01*
X125011184Y-93129000D01*
X125178816Y-93129000D01*
X125343228Y-93161703D01*
G37*
G36*
X125343228Y-90621703D02*
G01*
X125498100Y-90685853D01*
X125637481Y-90778985D01*
X125756015Y-90897519D01*
X125849147Y-91036900D01*
X125913297Y-91191772D01*
X125946000Y-91356184D01*
X125946000Y-91523816D01*
X125913297Y-91688228D01*
X125849147Y-91843100D01*
X125756015Y-91982481D01*
X125637481Y-92101015D01*
X125498100Y-92194147D01*
X125343228Y-92258297D01*
X125178816Y-92291000D01*
X125011184Y-92291000D01*
X124846772Y-92258297D01*
X124691900Y-92194147D01*
X124552519Y-92101015D01*
X124433985Y-91982481D01*
X124340853Y-91843100D01*
X124276703Y-91688228D01*
X124244000Y-91523816D01*
X124244000Y-91356184D01*
X124276703Y-91191772D01*
X124340853Y-91036900D01*
X124433985Y-90897519D01*
X124552519Y-90778985D01*
X124691900Y-90685853D01*
X124846772Y-90621703D01*
X125011184Y-90589000D01*
X125178816Y-90589000D01*
X125343228Y-90621703D01*
G37*
G36*
X132963228Y-90621703D02*
G01*
X133118100Y-90685853D01*
X133257481Y-90778985D01*
X133376015Y-90897519D01*
X133469147Y-91036900D01*
X133533297Y-91191772D01*
X133566000Y-91356184D01*
X133566000Y-91523816D01*
X133533297Y-91688228D01*
X133469147Y-91843100D01*
X133376015Y-91982481D01*
X133257481Y-92101015D01*
X133118100Y-92194147D01*
X132963228Y-92258297D01*
X132798816Y-92291000D01*
X132631184Y-92291000D01*
X132466772Y-92258297D01*
X132311900Y-92194147D01*
X132172519Y-92101015D01*
X132053985Y-91982481D01*
X131960853Y-91843100D01*
X131896703Y-91688228D01*
X131864000Y-91523816D01*
X131864000Y-91356184D01*
X131896703Y-91191772D01*
X131960853Y-91036900D01*
X132053985Y-90897519D01*
X132172519Y-90778985D01*
X132311900Y-90685853D01*
X132466772Y-90621703D01*
X132631184Y-90589000D01*
X132798816Y-90589000D01*
X132963228Y-90621703D01*
G37*
G36*
X125343228Y-88081703D02*
G01*
X125498100Y-88145853D01*
X125637481Y-88238985D01*
X125756015Y-88357519D01*
X125849147Y-88496900D01*
X125913297Y-88651772D01*
X125946000Y-88816184D01*
X125946000Y-88983816D01*
X125913297Y-89148228D01*
X125849147Y-89303100D01*
X125756015Y-89442481D01*
X125637481Y-89561015D01*
X125498100Y-89654147D01*
X125343228Y-89718297D01*
X125178816Y-89751000D01*
X125011184Y-89751000D01*
X124846772Y-89718297D01*
X124691900Y-89654147D01*
X124552519Y-89561015D01*
X124433985Y-89442481D01*
X124340853Y-89303100D01*
X124276703Y-89148228D01*
X124244000Y-88983816D01*
X124244000Y-88816184D01*
X124276703Y-88651772D01*
X124340853Y-88496900D01*
X124433985Y-88357519D01*
X124552519Y-88238985D01*
X124691900Y-88145853D01*
X124846772Y-88081703D01*
X125011184Y-88049000D01*
X125178816Y-88049000D01*
X125343228Y-88081703D01*
G37*
G36*
X132963228Y-88081703D02*
G01*
X133118100Y-88145853D01*
X133257481Y-88238985D01*
X133376015Y-88357519D01*
X133469147Y-88496900D01*
X133533297Y-88651772D01*
X133566000Y-88816184D01*
X133566000Y-88983816D01*
X133533297Y-89148228D01*
X133469147Y-89303100D01*
X133376015Y-89442481D01*
X133257481Y-89561015D01*
X133118100Y-89654147D01*
X132963228Y-89718297D01*
X132798816Y-89751000D01*
X132631184Y-89751000D01*
X132466772Y-89718297D01*
X132311900Y-89654147D01*
X132172519Y-89561015D01*
X132053985Y-89442481D01*
X131960853Y-89303100D01*
X131896703Y-89148228D01*
X131864000Y-88983816D01*
X131864000Y-88816184D01*
X131896703Y-88651772D01*
X131960853Y-88496900D01*
X132053985Y-88357519D01*
X132172519Y-88238985D01*
X132311900Y-88145853D01*
X132466772Y-88081703D01*
X132631184Y-88049000D01*
X132798816Y-88049000D01*
X132963228Y-88081703D01*
G37*
G36*
X125343228Y-85541703D02*
G01*
X125498100Y-85605853D01*
X125637481Y-85698985D01*
X125756015Y-85817519D01*
X125849147Y-85956900D01*
X125913297Y-86111772D01*
X125946000Y-86276184D01*
X125946000Y-86443816D01*
X125913297Y-86608228D01*
X125849147Y-86763100D01*
X125756015Y-86902481D01*
X125637481Y-87021015D01*
X125498100Y-87114147D01*
X125343228Y-87178297D01*
X125178816Y-87211000D01*
X125011184Y-87211000D01*
X124846772Y-87178297D01*
X124691900Y-87114147D01*
X124552519Y-87021015D01*
X124433985Y-86902481D01*
X124340853Y-86763100D01*
X124276703Y-86608228D01*
X124244000Y-86443816D01*
X124244000Y-86276184D01*
X124276703Y-86111772D01*
X124340853Y-85956900D01*
X124433985Y-85817519D01*
X124552519Y-85698985D01*
X124691900Y-85605853D01*
X124846772Y-85541703D01*
X125011184Y-85509000D01*
X125178816Y-85509000D01*
X125343228Y-85541703D01*
G37*
G36*
X132963228Y-85541703D02*
G01*
X133118100Y-85605853D01*
X133257481Y-85698985D01*
X133376015Y-85817519D01*
X133469147Y-85956900D01*
X133533297Y-86111772D01*
X133566000Y-86276184D01*
X133566000Y-86443816D01*
X133533297Y-86608228D01*
X133469147Y-86763100D01*
X133376015Y-86902481D01*
X133257481Y-87021015D01*
X133118100Y-87114147D01*
X132963228Y-87178297D01*
X132798816Y-87211000D01*
X132631184Y-87211000D01*
X132466772Y-87178297D01*
X132311900Y-87114147D01*
X132172519Y-87021015D01*
X132053985Y-86902481D01*
X131960853Y-86763100D01*
X131896703Y-86608228D01*
X131864000Y-86443816D01*
X131864000Y-86276184D01*
X131896703Y-86111772D01*
X131960853Y-85956900D01*
X132053985Y-85817519D01*
X132172519Y-85698985D01*
X132311900Y-85605853D01*
X132466772Y-85541703D01*
X132631184Y-85509000D01*
X132798816Y-85509000D01*
X132963228Y-85541703D01*
G37*
G36*
X128262705Y-83119046D02*
G01*
X128281096Y-83126664D01*
X128298668Y-83138407D01*
X128299119Y-83138776D01*
X128307436Y-83146314D01*
X128762219Y-83601097D01*
X128769757Y-83609414D01*
X128770124Y-83609862D01*
X128781874Y-83627448D01*
X128789517Y-83645899D01*
X128801068Y-83667510D01*
X128816613Y-83686452D01*
X128835555Y-83701997D01*
X128857166Y-83713548D01*
X128880615Y-83720660D01*
X128905001Y-83723062D01*
X128929387Y-83720660D01*
X128952836Y-83713546D01*
X128974447Y-83701995D01*
X128993389Y-83686450D01*
X129008934Y-83667508D01*
X129020483Y-83645899D01*
X129028126Y-83627448D01*
X129039876Y-83609862D01*
X129040243Y-83609414D01*
X129047781Y-83601097D01*
X129502564Y-83146314D01*
X129510881Y-83138776D01*
X129511332Y-83138407D01*
X129528904Y-83126664D01*
X129547295Y-83119046D01*
X129566809Y-83115166D01*
X129586693Y-83115166D01*
X129606207Y-83119046D01*
X129624598Y-83126664D01*
X129642170Y-83138407D01*
X129642621Y-83138776D01*
X129650938Y-83146314D01*
X129717315Y-83212691D01*
X129724853Y-83221008D01*
X129725222Y-83221459D01*
X129736965Y-83239031D01*
X129744580Y-83257416D01*
X129745445Y-83261766D01*
X129752556Y-83285216D01*
X129764105Y-83306828D01*
X129779649Y-83325771D01*
X129798589Y-83341318D01*
X129820199Y-83352871D01*
X129843647Y-83359987D01*
X129855795Y-83361789D01*
X129862010Y-83362401D01*
X129864339Y-83363108D01*
X129866481Y-83364253D01*
X129873125Y-83369705D01*
X129912975Y-83409555D01*
X129912981Y-83409560D01*
X130019754Y-83516333D01*
X130019759Y-83516339D01*
X130059609Y-83556189D01*
X130065061Y-83562833D01*
X130067100Y-83566646D01*
X130075036Y-83585806D01*
X130088650Y-83606181D01*
X130105977Y-83623508D01*
X130126351Y-83637121D01*
X130145511Y-83645057D01*
X130149324Y-83647096D01*
X130155968Y-83652548D01*
X130195818Y-83692398D01*
X130195824Y-83692403D01*
X130302597Y-83799176D01*
X130302602Y-83799182D01*
X130342452Y-83839032D01*
X130347904Y-83845676D01*
X130349943Y-83849489D01*
X130357879Y-83868649D01*
X130371493Y-83889024D01*
X130388820Y-83906351D01*
X130409194Y-83919964D01*
X130428354Y-83927900D01*
X130432167Y-83929939D01*
X130438811Y-83935391D01*
X130478661Y-83975241D01*
X130478667Y-83975246D01*
X130585440Y-84082019D01*
X130585445Y-84082025D01*
X130625295Y-84121875D01*
X130630747Y-84128519D01*
X130631892Y-84130661D01*
X130632599Y-84132990D01*
X130633211Y-84139205D01*
X130637991Y-84163239D01*
X130647368Y-84185878D01*
X130660981Y-84206252D01*
X130678308Y-84223580D01*
X130698682Y-84237194D01*
X130721321Y-84246571D01*
X130733234Y-84249555D01*
X130737584Y-84250420D01*
X130755969Y-84258035D01*
X130773541Y-84269778D01*
X130773992Y-84270147D01*
X130782309Y-84277685D01*
X130848686Y-84344062D01*
X130856224Y-84352379D01*
X130856593Y-84352830D01*
X130868336Y-84370402D01*
X130875954Y-84388793D01*
X130879834Y-84408307D01*
X130879834Y-84428191D01*
X130875954Y-84447705D01*
X130868336Y-84466096D01*
X130856593Y-84483668D01*
X130856224Y-84484119D01*
X130848686Y-84492436D01*
X130393903Y-84947219D01*
X130385586Y-84954757D01*
X130385138Y-84955124D01*
X130367552Y-84966874D01*
X130349101Y-84974517D01*
X130327490Y-84986068D01*
X130308548Y-85001613D01*
X130293003Y-85020555D01*
X130281452Y-85042166D01*
X130274340Y-85065615D01*
X130271938Y-85090001D01*
X130274340Y-85114387D01*
X130281454Y-85137836D01*
X130293005Y-85159447D01*
X130308550Y-85178389D01*
X130327492Y-85193934D01*
X130349101Y-85205483D01*
X130367552Y-85213126D01*
X130385138Y-85224876D01*
X130385586Y-85225243D01*
X130393903Y-85232781D01*
X130848686Y-85687564D01*
X130856224Y-85695881D01*
X130856593Y-85696332D01*
X130868336Y-85713904D01*
X130875954Y-85732295D01*
X130879834Y-85751809D01*
X130879834Y-85771693D01*
X130875954Y-85791207D01*
X130868336Y-85809598D01*
X130856593Y-85827170D01*
X130856224Y-85827621D01*
X130848686Y-85835938D01*
X130782309Y-85902315D01*
X130773992Y-85909853D01*
X130773541Y-85910222D01*
X130755969Y-85921965D01*
X130737584Y-85929580D01*
X130733234Y-85930445D01*
X130709784Y-85937556D01*
X130688172Y-85949105D01*
X130669229Y-85964649D01*
X130653682Y-85983589D01*
X130642129Y-86005199D01*
X130635013Y-86028647D01*
X130633211Y-86040795D01*
X130632599Y-86047010D01*
X130631892Y-86049339D01*
X130630747Y-86051481D01*
X130625295Y-86058125D01*
X130585445Y-86097975D01*
X130585440Y-86097981D01*
X130478667Y-86204754D01*
X130478661Y-86204759D01*
X130438811Y-86244609D01*
X130432167Y-86250061D01*
X130428354Y-86252100D01*
X130409194Y-86260036D01*
X130388819Y-86273650D01*
X130371492Y-86290977D01*
X130357879Y-86311351D01*
X130349943Y-86330511D01*
X130347904Y-86334324D01*
X130342452Y-86340968D01*
X130302602Y-86380818D01*
X130302597Y-86380824D01*
X130195824Y-86487597D01*
X130195818Y-86487602D01*
X130155968Y-86527452D01*
X130149324Y-86532904D01*
X130145511Y-86534943D01*
X130126351Y-86542879D01*
X130105976Y-86556493D01*
X130088649Y-86573820D01*
X130075036Y-86594194D01*
X130067100Y-86613354D01*
X130065061Y-86617167D01*
X130059609Y-86623811D01*
X130019759Y-86663661D01*
X130019754Y-86663667D01*
X129912981Y-86770440D01*
X129912975Y-86770445D01*
X129873125Y-86810295D01*
X129866481Y-86815747D01*
X129864339Y-86816892D01*
X129862010Y-86817599D01*
X129855795Y-86818211D01*
X129831761Y-86822991D01*
X129809122Y-86832368D01*
X129788748Y-86845981D01*
X129771420Y-86863308D01*
X129757806Y-86883682D01*
X129748429Y-86906321D01*
X129745445Y-86918234D01*
X129744580Y-86922584D01*
X129736965Y-86940969D01*
X129725222Y-86958541D01*
X129724853Y-86958992D01*
X129717315Y-86967309D01*
X129650938Y-87033686D01*
X129642621Y-87041224D01*
X129642170Y-87041593D01*
X129624598Y-87053336D01*
X129606207Y-87060954D01*
X129586693Y-87064834D01*
X129566809Y-87064834D01*
X129547295Y-87060954D01*
X129528904Y-87053336D01*
X129511332Y-87041593D01*
X129510881Y-87041224D01*
X129502564Y-87033686D01*
X129047781Y-86578903D01*
X129040243Y-86570586D01*
X129039876Y-86570138D01*
X129028126Y-86552552D01*
X129020483Y-86534101D01*
X129008932Y-86512490D01*
X128993387Y-86493548D01*
X128974445Y-86478003D01*
X128952834Y-86466452D01*
X128929385Y-86459340D01*
X128904999Y-86456938D01*
X128880613Y-86459340D01*
X128857164Y-86466454D01*
X128835553Y-86478005D01*
X128816611Y-86493550D01*
X128801066Y-86512492D01*
X128789517Y-86534101D01*
X128781874Y-86552552D01*
X128770124Y-86570138D01*
X128769757Y-86570586D01*
X128762219Y-86578903D01*
X128307436Y-87033686D01*
X128299119Y-87041224D01*
X128298668Y-87041593D01*
X128281096Y-87053336D01*
X128262705Y-87060954D01*
X128243191Y-87064834D01*
X128223307Y-87064834D01*
X128203793Y-87060954D01*
X128185402Y-87053336D01*
X128167830Y-87041593D01*
X128167379Y-87041224D01*
X128159062Y-87033686D01*
X128092685Y-86967309D01*
X128085147Y-86958992D01*
X128084778Y-86958541D01*
X128073035Y-86940969D01*
X128065420Y-86922584D01*
X128064555Y-86918234D01*
X128057444Y-86894784D01*
X128045895Y-86873172D01*
X128030351Y-86854229D01*
X128011411Y-86838682D01*
X127989801Y-86827129D01*
X127966353Y-86820013D01*
X127954205Y-86818211D01*
X127947990Y-86817599D01*
X127945661Y-86816892D01*
X127943519Y-86815747D01*
X127936875Y-86810295D01*
X127897025Y-86770445D01*
X127897019Y-86770440D01*
X127790246Y-86663667D01*
X127790241Y-86663661D01*
X127750391Y-86623811D01*
X127744939Y-86617167D01*
X127742900Y-86613354D01*
X127734964Y-86594194D01*
X127721350Y-86573819D01*
X127704023Y-86556492D01*
X127683649Y-86542879D01*
X127664489Y-86534943D01*
X127660676Y-86532904D01*
X127654032Y-86527452D01*
X127614182Y-86487602D01*
X127614176Y-86487597D01*
X127507403Y-86380824D01*
X127507398Y-86380818D01*
X127467548Y-86340968D01*
X127462096Y-86334324D01*
X127460057Y-86330511D01*
X127452121Y-86311351D01*
X127438507Y-86290976D01*
X127421180Y-86273649D01*
X127400806Y-86260036D01*
X127381646Y-86252100D01*
X127377833Y-86250061D01*
X127371189Y-86244609D01*
X127331339Y-86204759D01*
X127331333Y-86204754D01*
X127224560Y-86097981D01*
X127224555Y-86097975D01*
X127184705Y-86058125D01*
X127179253Y-86051481D01*
X127178108Y-86049339D01*
X127177401Y-86047010D01*
X127176789Y-86040795D01*
X127172009Y-86016761D01*
X127162632Y-85994122D01*
X127149019Y-85973748D01*
X127131692Y-85956420D01*
X127111318Y-85942806D01*
X127088679Y-85933429D01*
X127076766Y-85930445D01*
X127072416Y-85929580D01*
X127054031Y-85921965D01*
X127036459Y-85910222D01*
X127036008Y-85909853D01*
X127027691Y-85902315D01*
X126961314Y-85835938D01*
X126953776Y-85827621D01*
X126953407Y-85827170D01*
X126941664Y-85809598D01*
X126934046Y-85791207D01*
X126930166Y-85771693D01*
X126930166Y-85751809D01*
X126934046Y-85732295D01*
X126941664Y-85713904D01*
X126953407Y-85696332D01*
X126953776Y-85695881D01*
X126961314Y-85687564D01*
X127416097Y-85232781D01*
X127424414Y-85225243D01*
X127424862Y-85224876D01*
X127442448Y-85213126D01*
X127460899Y-85205483D01*
X127482510Y-85193932D01*
X127501452Y-85178387D01*
X127516997Y-85159445D01*
X127528548Y-85137834D01*
X127535660Y-85114385D01*
X127538062Y-85089999D01*
X127535660Y-85065613D01*
X127528546Y-85042164D01*
X127516995Y-85020553D01*
X127501450Y-85001611D01*
X127482508Y-84986066D01*
X127460899Y-84974517D01*
X127442448Y-84966874D01*
X127424862Y-84955124D01*
X127424414Y-84954757D01*
X127416097Y-84947219D01*
X126961314Y-84492436D01*
X126953776Y-84484119D01*
X126953407Y-84483668D01*
X126941664Y-84466096D01*
X126934046Y-84447705D01*
X126930166Y-84428191D01*
X126930166Y-84408307D01*
X126934046Y-84388793D01*
X126941664Y-84370402D01*
X126953407Y-84352830D01*
X126953776Y-84352379D01*
X126961314Y-84344062D01*
X127027691Y-84277685D01*
X127036008Y-84270147D01*
X127036459Y-84269778D01*
X127054031Y-84258035D01*
X127072416Y-84250420D01*
X127076766Y-84249555D01*
X127100216Y-84242444D01*
X127121828Y-84230895D01*
X127140771Y-84215351D01*
X127156318Y-84196411D01*
X127167871Y-84174801D01*
X127174987Y-84151353D01*
X127176789Y-84139205D01*
X127177401Y-84132990D01*
X127178108Y-84130661D01*
X127179253Y-84128519D01*
X127184705Y-84121875D01*
X127224555Y-84082025D01*
X127224560Y-84082019D01*
X127331333Y-83975246D01*
X127331339Y-83975241D01*
X127371189Y-83935391D01*
X127377833Y-83929939D01*
X127381646Y-83927900D01*
X127400806Y-83919964D01*
X127421181Y-83906350D01*
X127438508Y-83889023D01*
X127452121Y-83868649D01*
X127460057Y-83849489D01*
X127462096Y-83845676D01*
X127467548Y-83839032D01*
X127507398Y-83799182D01*
X127507403Y-83799176D01*
X127614176Y-83692403D01*
X127614182Y-83692398D01*
X127654032Y-83652548D01*
X127660676Y-83647096D01*
X127664489Y-83645057D01*
X127683649Y-83637121D01*
X127704024Y-83623507D01*
X127721351Y-83606180D01*
X127734964Y-83585806D01*
X127742900Y-83566646D01*
X127744939Y-83562833D01*
X127750391Y-83556189D01*
X127790241Y-83516339D01*
X127790246Y-83516333D01*
X127897019Y-83409560D01*
X127897025Y-83409555D01*
X127936875Y-83369705D01*
X127943519Y-83364253D01*
X127945661Y-83363108D01*
X127947990Y-83362401D01*
X127954205Y-83361789D01*
X127978239Y-83357009D01*
X128000878Y-83347632D01*
X128021252Y-83334019D01*
X128038580Y-83316692D01*
X128052194Y-83296318D01*
X128061571Y-83273679D01*
X128064555Y-83261766D01*
X128065420Y-83257416D01*
X128073035Y-83239031D01*
X128084778Y-83221459D01*
X128085147Y-83221008D01*
X128092685Y-83212691D01*
X128159062Y-83146314D01*
X128167379Y-83138776D01*
X128167830Y-83138407D01*
X128185402Y-83126664D01*
X128203793Y-83119046D01*
X128223307Y-83115166D01*
X128243191Y-83115166D01*
X128262705Y-83119046D01*
G37*
G36*
X132963228Y-83001703D02*
G01*
X133118100Y-83065853D01*
X133257481Y-83158985D01*
X133376015Y-83277519D01*
X133469147Y-83416900D01*
X133533297Y-83571772D01*
X133566000Y-83736184D01*
X133566000Y-83903816D01*
X133533297Y-84068228D01*
X133469147Y-84223100D01*
X133376015Y-84362481D01*
X133257481Y-84481015D01*
X133118100Y-84574147D01*
X132963228Y-84638297D01*
X132798816Y-84671000D01*
X132631184Y-84671000D01*
X132466772Y-84638297D01*
X132311900Y-84574147D01*
X132172519Y-84481015D01*
X132053985Y-84362481D01*
X131960853Y-84223100D01*
X131896703Y-84068228D01*
X131864000Y-83903816D01*
X131864000Y-83736184D01*
X131896703Y-83571772D01*
X131960853Y-83416900D01*
X132053985Y-83277519D01*
X132172519Y-83158985D01*
X132311900Y-83065853D01*
X132466772Y-83001703D01*
X132631184Y-82969000D01*
X132798816Y-82969000D01*
X132963228Y-83001703D01*
G37*
G36*
X125343228Y-83001703D02*
G01*
X125498100Y-83065853D01*
X125637481Y-83158985D01*
X125756015Y-83277519D01*
X125849147Y-83416900D01*
X125913297Y-83571772D01*
X125946000Y-83736184D01*
X125946000Y-83903816D01*
X125913297Y-84068228D01*
X125849147Y-84223100D01*
X125756015Y-84362481D01*
X125637481Y-84481015D01*
X125498100Y-84574147D01*
X125343228Y-84638297D01*
X125178816Y-84671000D01*
X125011184Y-84671000D01*
X124846772Y-84638297D01*
X124691900Y-84574147D01*
X124552519Y-84481015D01*
X124433985Y-84362481D01*
X124340853Y-84223100D01*
X124276703Y-84068228D01*
X124244000Y-83903816D01*
X124244000Y-83736184D01*
X124276703Y-83571772D01*
X124340853Y-83416900D01*
X124433985Y-83277519D01*
X124552519Y-83158985D01*
X124691900Y-83065853D01*
X124846772Y-83001703D01*
X125011184Y-82969000D01*
X125178816Y-82969000D01*
X125343228Y-83001703D01*
G37*
G36*
X126836636Y-81651481D02*
G01*
X126874132Y-81662856D01*
X126908691Y-81681328D01*
X126943755Y-81710104D01*
X127395396Y-82161745D01*
X127424172Y-82196809D01*
X127442644Y-82231368D01*
X127454019Y-82268864D01*
X127457859Y-82307863D01*
X127454019Y-82346862D01*
X127442644Y-82384358D01*
X127424172Y-82418917D01*
X127395396Y-82453981D01*
X126873045Y-82976332D01*
X126837981Y-83005108D01*
X126803422Y-83023580D01*
X126765926Y-83034955D01*
X126726927Y-83038795D01*
X126687928Y-83034955D01*
X126650432Y-83023580D01*
X126615873Y-83005108D01*
X126580809Y-82976332D01*
X126129168Y-82524691D01*
X126100392Y-82489627D01*
X126081920Y-82455068D01*
X126070545Y-82417572D01*
X126066705Y-82378573D01*
X126070545Y-82339574D01*
X126081920Y-82302078D01*
X126100392Y-82267519D01*
X126129168Y-82232455D01*
X126651519Y-81710104D01*
X126686583Y-81681328D01*
X126721142Y-81662856D01*
X126758638Y-81651481D01*
X126797637Y-81647641D01*
X126836636Y-81651481D01*
G37*
G36*
X125343228Y-80461703D02*
G01*
X125498100Y-80525853D01*
X125637481Y-80618985D01*
X125756015Y-80737519D01*
X125849147Y-80876900D01*
X125913297Y-81031772D01*
X125946000Y-81196184D01*
X125946000Y-81363816D01*
X125913297Y-81528228D01*
X125849147Y-81683100D01*
X125756015Y-81822481D01*
X125637481Y-81941015D01*
X125498100Y-82034147D01*
X125343228Y-82098297D01*
X125178816Y-82131000D01*
X125011184Y-82131000D01*
X124846772Y-82098297D01*
X124691900Y-82034147D01*
X124552519Y-81941015D01*
X124433985Y-81822481D01*
X124340853Y-81683100D01*
X124276703Y-81528228D01*
X124244000Y-81363816D01*
X124244000Y-81196184D01*
X124276703Y-81031772D01*
X124340853Y-80876900D01*
X124433985Y-80737519D01*
X124552519Y-80618985D01*
X124691900Y-80525853D01*
X124846772Y-80461703D01*
X125011184Y-80429000D01*
X125178816Y-80429000D01*
X125343228Y-80461703D01*
G37*
G36*
X132963228Y-80461703D02*
G01*
X133118100Y-80525853D01*
X133257481Y-80618985D01*
X133376015Y-80737519D01*
X133469147Y-80876900D01*
X133533297Y-81031772D01*
X133566000Y-81196184D01*
X133566000Y-81363816D01*
X133533297Y-81528228D01*
X133469147Y-81683100D01*
X133376015Y-81822481D01*
X133257481Y-81941015D01*
X133118100Y-82034147D01*
X132963228Y-82098297D01*
X132798816Y-82131000D01*
X132631184Y-82131000D01*
X132466772Y-82098297D01*
X132311900Y-82034147D01*
X132172519Y-81941015D01*
X132053985Y-81822481D01*
X131960853Y-81683100D01*
X131896703Y-81528228D01*
X131864000Y-81363816D01*
X131864000Y-81196184D01*
X131896703Y-81031772D01*
X131960853Y-80876900D01*
X132053985Y-80737519D01*
X132172519Y-80618985D01*
X132311900Y-80525853D01*
X132466772Y-80461703D01*
X132631184Y-80429000D01*
X132798816Y-80429000D01*
X132963228Y-80461703D01*
G37*
G36*
X128074072Y-80414045D02*
G01*
X128111568Y-80425420D01*
X128146127Y-80443892D01*
X128181191Y-80472668D01*
X128632832Y-80924309D01*
X128661608Y-80959373D01*
X128680080Y-80993932D01*
X128691455Y-81031428D01*
X128695295Y-81070427D01*
X128691455Y-81109426D01*
X128680080Y-81146922D01*
X128661608Y-81181481D01*
X128632832Y-81216545D01*
X128110481Y-81738896D01*
X128075417Y-81767672D01*
X128040858Y-81786144D01*
X128003362Y-81797519D01*
X127964363Y-81801359D01*
X127925364Y-81797519D01*
X127887868Y-81786144D01*
X127853309Y-81767672D01*
X127818245Y-81738896D01*
X127366604Y-81287255D01*
X127337828Y-81252191D01*
X127319356Y-81217632D01*
X127307981Y-81180136D01*
X127304141Y-81141137D01*
X127307981Y-81102138D01*
X127319356Y-81064642D01*
X127337828Y-81030083D01*
X127366604Y-80995019D01*
X127888955Y-80472668D01*
X127924019Y-80443892D01*
X127958578Y-80425420D01*
X127996074Y-80414045D01*
X128035073Y-80410205D01*
X128074072Y-80414045D01*
G37*
G36*
X125343228Y-77921703D02*
G01*
X125498100Y-77985853D01*
X125637481Y-78078985D01*
X125756015Y-78197519D01*
X125849147Y-78336900D01*
X125913297Y-78491772D01*
X125946000Y-78656184D01*
X125946000Y-78823816D01*
X125913297Y-78988228D01*
X125849147Y-79143100D01*
X125756015Y-79282481D01*
X125637481Y-79401015D01*
X125498100Y-79494147D01*
X125343228Y-79558297D01*
X125178816Y-79591000D01*
X125011184Y-79591000D01*
X124846772Y-79558297D01*
X124691900Y-79494147D01*
X124552519Y-79401015D01*
X124433985Y-79282481D01*
X124340853Y-79143100D01*
X124276703Y-78988228D01*
X124244000Y-78823816D01*
X124244000Y-78656184D01*
X124276703Y-78491772D01*
X124340853Y-78336900D01*
X124433985Y-78197519D01*
X124552519Y-78078985D01*
X124691900Y-77985853D01*
X124846772Y-77921703D01*
X125011184Y-77889000D01*
X125178816Y-77889000D01*
X125343228Y-77921703D01*
G37*
G36*
X132963228Y-77921703D02*
G01*
X133118100Y-77985853D01*
X133257481Y-78078985D01*
X133376015Y-78197519D01*
X133469147Y-78336900D01*
X133533297Y-78491772D01*
X133566000Y-78656184D01*
X133566000Y-78823816D01*
X133533297Y-78988228D01*
X133469147Y-79143100D01*
X133376015Y-79282481D01*
X133257481Y-79401015D01*
X133118100Y-79494147D01*
X132963228Y-79558297D01*
X132798816Y-79591000D01*
X132631184Y-79591000D01*
X132466772Y-79558297D01*
X132311900Y-79494147D01*
X132172519Y-79401015D01*
X132053985Y-79282481D01*
X131960853Y-79143100D01*
X131896703Y-78988228D01*
X131864000Y-78823816D01*
X131864000Y-78656184D01*
X131896703Y-78491772D01*
X131960853Y-78336900D01*
X132053985Y-78197519D01*
X132172519Y-78078985D01*
X132311900Y-77985853D01*
X132466772Y-77921703D01*
X132631184Y-77889000D01*
X132798816Y-77889000D01*
X132963228Y-77921703D01*
G37*
G36*
X125343228Y-75381703D02*
G01*
X125498100Y-75445853D01*
X125637481Y-75538985D01*
X125756015Y-75657519D01*
X125849147Y-75796900D01*
X125913297Y-75951772D01*
X125946000Y-76116184D01*
X125946000Y-76283816D01*
X125913297Y-76448228D01*
X125849147Y-76603100D01*
X125756015Y-76742481D01*
X125637481Y-76861015D01*
X125498100Y-76954147D01*
X125343228Y-77018297D01*
X125178816Y-77051000D01*
X125011184Y-77051000D01*
X124846772Y-77018297D01*
X124691900Y-76954147D01*
X124552519Y-76861015D01*
X124433985Y-76742481D01*
X124340853Y-76603100D01*
X124276703Y-76448228D01*
X124244000Y-76283816D01*
X124244000Y-76116184D01*
X124276703Y-75951772D01*
X124340853Y-75796900D01*
X124433985Y-75657519D01*
X124552519Y-75538985D01*
X124691900Y-75445853D01*
X124846772Y-75381703D01*
X125011184Y-75349000D01*
X125178816Y-75349000D01*
X125343228Y-75381703D01*
G37*
G36*
X132963228Y-75381703D02*
G01*
X133118100Y-75445853D01*
X133257481Y-75538985D01*
X133376015Y-75657519D01*
X133469147Y-75796900D01*
X133533297Y-75951772D01*
X133566000Y-76116184D01*
X133566000Y-76283816D01*
X133533297Y-76448228D01*
X133469147Y-76603100D01*
X133376015Y-76742481D01*
X133257481Y-76861015D01*
X133118100Y-76954147D01*
X132963228Y-77018297D01*
X132798816Y-77051000D01*
X132631184Y-77051000D01*
X132466772Y-77018297D01*
X132311900Y-76954147D01*
X132172519Y-76861015D01*
X132053985Y-76742481D01*
X131960853Y-76603100D01*
X131896703Y-76448228D01*
X131864000Y-76283816D01*
X131864000Y-76116184D01*
X131896703Y-75951772D01*
X131960853Y-75796900D01*
X132053985Y-75657519D01*
X132172519Y-75538985D01*
X132311900Y-75445853D01*
X132466772Y-75381703D01*
X132631184Y-75349000D01*
X132798816Y-75349000D01*
X132963228Y-75381703D01*
G37*
G36*
X132963228Y-72841703D02*
G01*
X133118100Y-72905853D01*
X133257481Y-72998985D01*
X133376015Y-73117519D01*
X133469147Y-73256900D01*
X133533297Y-73411772D01*
X133566000Y-73576184D01*
X133566000Y-73743816D01*
X133533297Y-73908228D01*
X133469147Y-74063100D01*
X133376015Y-74202481D01*
X133257481Y-74321015D01*
X133118100Y-74414147D01*
X132963228Y-74478297D01*
X132798816Y-74511000D01*
X132631184Y-74511000D01*
X132466772Y-74478297D01*
X132311900Y-74414147D01*
X132172519Y-74321015D01*
X132053985Y-74202481D01*
X131960853Y-74063100D01*
X131896703Y-73908228D01*
X131864000Y-73743816D01*
X131864000Y-73576184D01*
X131896703Y-73411772D01*
X131960853Y-73256900D01*
X132053985Y-73117519D01*
X132172519Y-72998985D01*
X132311900Y-72905853D01*
X132466772Y-72841703D01*
X132631184Y-72809000D01*
X132798816Y-72809000D01*
X132963228Y-72841703D01*
G37*
G36*
X125946000Y-74511000D02*
G01*
X124244000Y-74511000D01*
X124244000Y-72809000D01*
X125946000Y-72809000D01*
X125946000Y-74511000D01*
G37*
M02*
